<?xml version="1.0" standalone="no"?>
<svg id="SvgjsSvg1097" width="500" height="500" xmlns="http://www.w3.org/2000/svg" version="1.1" xmlns:xlink="http://www.w3.org/1999/xlink" xmlns:svgjs="http://svgjs.com/svgjs"><defs id="SvgjsDefs1098"></defs><rect id="SvgjsRect1099" width="500" height="500" x="0" y="0" fill="#358884" stroke-width="0"></rect><path id="SvgjsPath1100" d="M 87.08333333333333 398.75 L  101.25 384.5833333333333  101.25 370.4166666666667  87.08333333333333 356.25  101.25 342.0833333333333  115.41666666666667 356.25  129.58333333333334 356.25  143.75 342.0833333333333  143.75 327.9166666666667  129.58333333333334 313.75  115.41666666666667 313.75  101.25 327.9166666666667  87.08333333333333 313.75  101.25 299.5833333333333  101.25 285.4166666666667  87.08333333333333 271.25  101.25 257.0833333333333  115.41666666666667 271.25  129.58333333333334 271.25  143.75 257.0833333333333  157.91666666666666 271.25  143.75 285.4166666666667  143.75 299.5833333333333  157.91666666666666 313.75  172.08333333333334 313.75  186.25 299.5833333333333  186.25 285.4166666666667  172.08333333333334 271.25  186.25 257.0833333333333  200.41666666666666 271.25  214.58333333333334 271.25  228.75 257.0833333333333  228.75 242.91666666666666  214.58333333333334 228.75  200.41666666666666 228.75  186.25 242.91666666666666  172.08333333333334 228.75  186.25 214.58333333333334  186.25 200.41666666666666  172.08333333333334 186.25  157.91666666666666 186.25  143.75 200.41666666666666  143.75 214.58333333333334  157.91666666666666 228.75  143.75 242.91666666666666  129.58333333333334 228.75  115.41666666666667 228.75  101.25 242.91666666666666  87.08333333333333 228.75  101.25 214.58333333333334  101.25 200.41666666666666  87.08333333333333 186.25  101.25 172.08333333333334  115.41666666666667 186.25  129.58333333333334 186.25  143.75 172.08333333333334  143.75 157.91666666666666  129.58333333333334 143.75  115.41666666666667 143.75  101.25 157.91666666666666  87.08333333333333 143.75  101.25 129.58333333333334  101.25 115.41666666666667  87.08333333333333 101.25  101.25 87.08333333333333  115.41666666666667 101.25  129.58333333333334 101.25  143.75 87.08333333333333  157.91666666666666 101.25  143.75 115.41666666666667  143.75 129.58333333333334  157.91666666666666 143.75  172.08333333333334 143.75  186.25 129.58333333333334  186.25 115.41666666666667  172.08333333333334 101.25  186.25 87.08333333333333  200.41666666666666 101.25  214.58333333333334 101.25  228.75 87.08333333333333  242.91666666666666 101.25  228.75 115.41666666666667  228.75 129.58333333333334  242.91666666666666 143.75  228.75 157.91666666666666  214.58333333333334 143.75  200.41666666666666 143.75  186.25 157.91666666666666  186.25 172.08333333333334  200.41666666666666 186.25  214.58333333333334 186.25  228.75 172.08333333333334  242.91666666666666 186.25  228.75 200.41666666666666  228.75 214.58333333333334  242.91666666666666 228.75  257.0833333333333 228.75  271.25 214.58333333333334  271.25 200.41666666666666  257.0833333333333 186.25  271.25 172.08333333333334  285.4166666666667 186.25  299.5833333333333 186.25  313.75 172.08333333333334  313.75 157.91666666666666  299.5833333333333 143.75  285.4166666666667 143.75  271.25 157.91666666666666  257.0833333333333 143.75  271.25 129.58333333333334  271.25 115.41666666666667  257.0833333333333 101.25  271.25 87.08333333333333  285.4166666666667 101.25  299.5833333333333 101.25  313.75 87.08333333333333  327.9166666666667 101.25  313.75 115.41666666666667  313.75 129.58333333333334  327.9166666666667 143.75  342.0833333333333 143.75  356.25 129.58333333333334  356.25 115.41666666666667  342.0833333333333 101.25  356.25 87.08333333333333  370.4166666666667 101.25  384.5833333333333 101.25  398.75 87.08333333333333  412.9166666666667 101.25  398.75 115.41666666666667  398.75 129.58333333333334  412.9166666666667 143.75  398.75 157.91666666666666  384.5833333333333 143.75  370.4166666666667 143.75  356.25 157.91666666666666  356.25 172.08333333333334  370.4166666666667 186.25  384.5833333333333 186.25  398.75 172.08333333333334  412.9166666666667 186.25  398.75 200.41666666666666  398.75 214.58333333333334  412.9166666666667 228.75  398.75 242.91666666666666  384.5833333333333 228.75  370.4166666666667 228.75  356.25 242.91666666666666  342.0833333333333 228.75  356.25 214.58333333333334  356.25 200.41666666666666  342.0833333333333 186.25  327.9166666666667 186.25  313.75 200.41666666666666  313.75 214.58333333333334  327.9166666666667 228.75  313.75 242.91666666666666  299.5833333333333 228.75  285.4166666666667 228.75  271.25 242.91666666666666  271.25 257.0833333333333  285.4166666666667 271.25  299.5833333333333 271.25  313.75 257.0833333333333  327.9166666666667 271.25  313.75 285.4166666666667  313.75 299.5833333333333  327.9166666666667 313.75  342.0833333333333 313.75  356.25 299.5833333333333  356.25 285.4166666666667  342.0833333333333 271.25  356.25 257.0833333333333  370.4166666666667 271.25  384.5833333333333 271.25  398.75 257.0833333333333  412.9166666666667 271.25  398.75 285.4166666666667  398.75 299.5833333333333  412.9166666666667 313.75  398.75 327.9166666666667  384.5833333333333 313.75  370.4166666666667 313.75  356.25 327.9166666666667  356.25 342.0833333333333  370.4166666666667 356.25  384.5833333333333 356.25  398.75 342.0833333333333  412.9166666666667 356.25  398.75 370.4166666666667  398.75 384.5833333333333  412.9166666666667 398.75  398.75 412.9166666666667  384.5833333333333 398.75  370.4166666666667 398.75  356.25 412.9166666666667  342.0833333333333 398.75  356.25 384.5833333333333  356.25 370.4166666666667  342.0833333333333 356.25  327.9166666666667 356.25  313.75 370.4166666666667  313.75 384.5833333333333  327.9166666666667 398.75  313.75 412.9166666666667  299.5833333333333 398.75  285.4166666666667 398.75  271.25 412.9166666666667  257.0833333333333 398.75  271.25 384.5833333333333  271.25 370.4166666666667  257.0833333333333 356.25  271.25 342.0833333333333  285.4166666666667 356.25  299.5833333333333 356.25  313.75 342.0833333333333  313.75 327.9166666666667  299.5833333333333 313.75  285.4166666666667 313.75  271.25 327.9166666666667  257.0833333333333 313.75  271.25 299.5833333333333  271.25 285.4166666666667  257.0833333333333 271.25  242.91666666666666 271.25  228.75 285.4166666666667  228.75 299.5833333333333  242.91666666666666 313.75  228.75 327.9166666666667  214.58333333333334 313.75  200.41666666666666 313.75  186.25 327.9166666666667  186.25 342.0833333333333  200.41666666666666 356.25  214.58333333333334 356.25  228.75 342.0833333333333  242.91666666666666 356.25  228.75 370.4166666666667  228.75 384.5833333333333  242.91666666666666 398.75  228.75 412.9166666666667  214.58333333333334 398.75  200.41666666666666 398.75  186.25 412.9166666666667  172.08333333333334 398.75  186.25 384.5833333333333  186.25 370.4166666666667  172.08333333333334 356.25  157.91666666666666 356.25  143.75 370.4166666666667  143.75 384.5833333333333  157.91666666666666 398.75  143.75 412.9166666666667  129.58333333333334 398.75  115.41666666666667 398.75  101.25 412.9166666666667  87.08333333333333 398.75" fill="#000000" stroke="#e3fff1" stroke-width="2" fill-opacity="0"></path></svg>