<?xml version="1.0" standalone="no"?>
<svg id="SvgjsSvg1070" width="500" height="500" xmlns="http://www.w3.org/2000/svg" version="1.1" xmlns:xlink="http://www.w3.org/1999/xlink" xmlns:svgjs="http://svgjs.com/svgjs"><defs id="SvgjsDefs1071"></defs><rect id="SvgjsRect1072" width="500" height="500" x="0" y="0" fill="#358884" stroke-width="0"></rect><path id="SvgjsPath1073" d="M 136.66666666666666 250 L  250 136.66666666666666  363.3333333333333 250  250 363.3333333333333  136.66666666666666 250" fill="#000000" stroke="#e3fff1" stroke-width="2" fill-opacity="0"></path><path id="SvgjsPath1074" d="M 136.66666666666666 306.6666666666667 L  136.66666666666666 193.33333333333334  193.33333333333334 136.66666666666666  306.6666666666667 136.66666666666666  363.3333333333333 193.33333333333334  363.3333333333333 306.6666666666667  306.6666666666667 363.3333333333333  193.33333333333334 363.3333333333333  136.66666666666666 306.6666666666667" fill="#000000" stroke="#e3fff1" stroke-width="2" fill-opacity="0"></path><path id="SvgjsPath1075" d="M 108.33333333333333 335 L  165 278.3333333333333  165 221.66666666666666  108.33333333333333 165  165 108.33333333333333  221.66666666666666 165  278.3333333333333 165  335 108.33333333333333  391.6666666666667 165  335 221.66666666666666  335 278.3333333333333  391.6666666666667 335  335 391.6666666666667  278.3333333333333 335  221.66666666666666 335  165 391.6666666666667  108.33333333333333 335" fill="#000000" stroke="#e3fff1" stroke-width="2" fill-opacity="0"></path><path id="SvgjsPath1076" d="M 108.33333333333333 363.3333333333333 L  108.33333333333333 306.6666666666667  136.66666666666666 278.3333333333333  193.33333333333334 278.3333333333333  193.33333333333334 221.66666666666666  136.66666666666666 221.66666666666666  108.33333333333333 193.33333333333334  108.33333333333333 136.66666666666666  136.66666666666666 108.33333333333333  193.33333333333334 108.33333333333333  221.66666666666666 136.66666666666666  221.66666666666666 193.33333333333334  278.3333333333333 193.33333333333334  278.3333333333333 136.66666666666666  306.6666666666667 108.33333333333333  363.3333333333333 108.33333333333333  391.6666666666667 136.66666666666666  391.6666666666667 193.33333333333334  363.3333333333333 221.66666666666666  306.6666666666667 221.66666666666666  306.6666666666667 278.3333333333333  363.3333333333333 278.3333333333333  391.6666666666667 306.6666666666667  391.6666666666667 363.3333333333333  363.3333333333333 391.6666666666667  306.6666666666667 391.6666666666667  278.3333333333333 363.3333333333333  278.3333333333333 306.6666666666667  221.66666666666666 306.6666666666667  221.66666666666666 363.3333333333333  193.33333333333334 391.6666666666667  136.66666666666666 391.6666666666667  108.33333333333333 363.3333333333333" fill="#000000" stroke="#e3fff1" stroke-width="2" fill-opacity="0"></path><path id="SvgjsPath1077" d="M 94.16666666666667 377.5 L  122.5 349.1666666666667  122.5 320.8333333333333  94.16666666666667 292.5  122.5 264.1666666666667  150.83333333333334 292.5  179.16666666666666 292.5  207.5 264.1666666666667  207.5 235.83333333333334  179.16666666666666 207.5  150.83333333333334 207.5  122.5 235.83333333333334  94.16666666666667 207.5  122.5 179.16666666666666  122.5 150.83333333333334  94.16666666666667 122.5  122.5 94.16666666666667  150.83333333333334 122.5  179.16666666666666 122.5  207.5 94.16666666666667  235.83333333333334 122.5  207.5 150.83333333333334  207.5 179.16666666666666  235.83333333333334 207.5  264.1666666666667 207.5  292.5 179.16666666666666  292.5 150.83333333333334  264.1666666666667 122.5  292.5 94.16666666666667  320.8333333333333 122.5  349.1666666666667 122.5  377.5 94.16666666666667  405.8333333333333 122.5  377.5 150.83333333333334  377.5 179.16666666666666  405.8333333333333 207.5  377.5 235.83333333333334  349.1666666666667 207.5  320.8333333333333 207.5  292.5 235.83333333333334  292.5 264.1666666666667  320.8333333333333 292.5  349.1666666666667 292.5  377.5 264.1666666666667  405.8333333333333 292.5  377.5 320.8333333333333  377.5 349.1666666666667  405.8333333333333 377.5  377.5 405.8333333333333  349.1666666666667 377.5  320.8333333333333 377.5  292.5 405.8333333333333  264.1666666666667 377.5  292.5 349.1666666666667  292.5 320.8333333333333  264.1666666666667 292.5  235.83333333333334 292.5  207.5 320.8333333333333  207.5 349.1666666666667  235.83333333333334 377.5  207.5 405.8333333333333  179.16666666666666 377.5  150.83333333333334 377.5  122.5 405.8333333333333  94.16666666666667 377.5" fill="#000000" stroke="#e3fff1" stroke-width="2" fill-opacity="0"></path><path id="SvgjsPath1078" d="M 94.16666666666667 391.6666666666667 L  94.16666666666667 363.3333333333333  108.33333333333333 349.1666666666667  136.66666666666666 349.1666666666667  136.66666666666666 320.8333333333333  108.33333333333333 320.8333333333333  94.16666666666667 306.6666666666667  94.16666666666667 278.3333333333333  108.33333333333333 264.1666666666667  136.66666666666666 264.1666666666667  150.83333333333334 278.3333333333333  150.83333333333334 306.6666666666667  179.16666666666666 306.6666666666667  179.16666666666666 278.3333333333333  193.33333333333334 264.1666666666667  221.66666666666666 264.1666666666667  221.66666666666666 235.83333333333334  193.33333333333334 235.83333333333334  179.16666666666666 221.66666666666666  179.16666666666666 193.33333333333334  150.83333333333334 193.33333333333334  150.83333333333334 221.66666666666666  136.66666666666666 235.83333333333334  108.33333333333333 235.83333333333334  94.16666666666667 221.66666666666666  94.16666666666667 193.33333333333334  108.33333333333333 179.16666666666666  136.66666666666666 179.16666666666666  136.66666666666666 150.83333333333334  108.33333333333333 150.83333333333334  94.16666666666667 136.66666666666666  94.16666666666667 108.33333333333333  108.33333333333333 94.16666666666667  136.66666666666666 94.16666666666667  150.83333333333334 108.33333333333333  150.83333333333334 136.66666666666666  179.16666666666666 136.66666666666666  179.16666666666666 108.33333333333333  193.33333333333334 94.16666666666667  221.66666666666666 94.16666666666667  235.83333333333334 108.33333333333333  235.83333333333334 136.66666666666666  221.66666666666666 150.83333333333334  193.33333333333334 150.83333333333334  193.33333333333334 179.16666666666666  221.66666666666666 179.16666666666666  235.83333333333334 193.33333333333334  235.83333333333334 221.66666666666666  264.1666666666667 221.66666666666666  264.1666666666667 193.33333333333334  278.3333333333333 179.16666666666666  306.6666666666667 179.16666666666666  306.6666666666667 150.83333333333334  278.3333333333333 150.83333333333334  264.1666666666667 136.66666666666666  264.1666666666667 108.33333333333333  278.3333333333333 94.16666666666667  306.6666666666667 94.16666666666667  320.8333333333333 108.33333333333333  320.8333333333333 136.66666666666666  349.1666666666667 136.66666666666666  349.1666666666667 108.33333333333333  363.3333333333333 94.16666666666667  391.6666666666667 94.16666666666667  405.8333333333333 108.33333333333333  405.8333333333333 136.66666666666666  391.6666666666667 150.83333333333334  363.3333333333333 150.83333333333334  363.3333333333333 179.16666666666666  391.6666666666667 179.16666666666666  405.8333333333333 193.33333333333334  405.8333333333333 221.66666666666666  391.6666666666667 235.83333333333334  363.3333333333333 235.83333333333334  349.1666666666667 221.66666666666666  349.1666666666667 193.33333333333334  320.8333333333333 193.33333333333334  320.8333333333333 221.66666666666666  306.6666666666667 235.83333333333334  278.3333333333333 235.83333333333334  278.3333333333333 264.1666666666667  306.6666666666667 264.1666666666667  320.8333333333333 278.3333333333333  320.8333333333333 306.6666666666667  349.1666666666667 306.6666666666667  349.1666666666667 278.3333333333333  363.3333333333333 264.1666666666667  391.6666666666667 264.1666666666667  405.8333333333333 278.3333333333333  405.8333333333333 306.6666666666667  391.6666666666667 320.8333333333333  363.3333333333333 320.8333333333333  363.3333333333333 349.1666666666667  391.6666666666667 349.1666666666667  405.8333333333333 363.3333333333333  405.8333333333333 391.6666666666667  391.6666666666667 405.8333333333333  363.3333333333333 405.8333333333333  349.1666666666667 391.6666666666667  349.1666666666667 363.3333333333333  320.8333333333333 363.3333333333333  320.8333333333333 391.6666666666667  306.6666666666667 405.8333333333333  278.3333333333333 405.8333333333333  264.1666666666667 391.6666666666667  264.1666666666667 363.3333333333333  278.3333333333333 349.1666666666667  306.6666666666667 349.1666666666667  306.6666666666667 320.8333333333333  278.3333333333333 320.8333333333333  264.1666666666667 306.6666666666667  264.1666666666667 278.3333333333333  235.83333333333334 278.3333333333333  235.83333333333334 306.6666666666667  221.66666666666666 320.8333333333333  193.33333333333334 320.8333333333333  193.33333333333334 349.1666666666667  221.66666666666666 349.1666666666667  235.83333333333334 363.3333333333333  235.83333333333334 391.6666666666667  221.66666666666666 405.8333333333333  193.33333333333334 405.8333333333333  179.16666666666666 391.6666666666667  179.16666666666666 363.3333333333333  150.83333333333334 363.3333333333333  150.83333333333334 391.6666666666667  136.66666666666666 405.8333333333333  108.33333333333333 405.8333333333333  94.16666666666667 391.6666666666667" fill="#000000" stroke="#e3fff1" stroke-width="2" fill-opacity="0"></path><path id="SvgjsPath1079" d="M 87.08333333333333 398.75 L  101.25 384.5833333333333  101.25 370.4166666666667  87.08333333333333 356.25  101.25 342.0833333333333  115.41666666666667 356.25  129.58333333333334 356.25  143.75 342.0833333333333  143.75 327.9166666666667  129.58333333333334 313.75  115.41666666666667 313.75  101.25 327.9166666666667  87.08333333333333 313.75  101.25 299.5833333333333  101.25 285.4166666666667  87.08333333333333 271.25  101.25 257.0833333333333  115.41666666666667 271.25  129.58333333333334 271.25  143.75 257.0833333333333  157.91666666666666 271.25  143.75 285.4166666666667  143.75 299.5833333333333  157.91666666666666 313.75  172.08333333333334 313.75  186.25 299.5833333333333  186.25 285.4166666666667  172.08333333333334 271.25  186.25 257.0833333333333  200.41666666666666 271.25  214.58333333333334 271.25  228.75 257.0833333333333  228.75 242.91666666666666  214.58333333333334 228.75  200.41666666666666 228.75  186.25 242.91666666666666  172.08333333333334 228.75  186.25 214.58333333333334  186.25 200.41666666666666  172.08333333333334 186.25  157.91666666666666 186.25  143.75 200.41666666666666  143.75 214.58333333333334  157.91666666666666 228.75  143.75 242.91666666666666  129.58333333333334 228.75  115.41666666666667 228.75  101.25 242.91666666666666  87.08333333333333 228.75  101.25 214.58333333333334  101.25 200.41666666666666  87.08333333333333 186.25  101.25 172.08333333333334  115.41666666666667 186.25  129.58333333333334 186.25  143.75 172.08333333333334  143.75 157.91666666666666  129.58333333333334 143.75  115.41666666666667 143.75  101.25 157.91666666666666  87.08333333333333 143.75  101.25 129.58333333333334  101.25 115.41666666666667  87.08333333333333 101.25  101.25 87.08333333333333  115.41666666666667 101.25  129.58333333333334 101.25  143.75 87.08333333333333  157.91666666666666 101.25  143.75 115.41666666666667  143.75 129.58333333333334  157.91666666666666 143.75  172.08333333333334 143.75  186.25 129.58333333333334  186.25 115.41666666666667  172.08333333333334 101.25  186.25 87.08333333333333  200.41666666666666 101.25  214.58333333333334 101.25  228.75 87.08333333333333  242.91666666666666 101.25  228.75 115.41666666666667  228.75 129.58333333333334  242.91666666666666 143.75  228.75 157.91666666666666  214.58333333333334 143.75  200.41666666666666 143.75  186.25 157.91666666666666  186.25 172.08333333333334  200.41666666666666 186.25  214.58333333333334 186.25  228.75 172.08333333333334  242.91666666666666 186.25  228.75 200.41666666666666  228.75 214.58333333333334  242.91666666666666 228.75  257.0833333333333 228.75  271.25 214.58333333333334  271.25 200.41666666666666  257.0833333333333 186.25  271.25 172.08333333333334  285.4166666666667 186.25  299.5833333333333 186.25  313.75 172.08333333333334  313.75 157.91666666666666  299.5833333333333 143.75  285.4166666666667 143.75  271.25 157.91666666666666  257.0833333333333 143.75  271.25 129.58333333333334  271.25 115.41666666666667  257.0833333333333 101.25  271.25 87.08333333333333  285.4166666666667 101.25  299.5833333333333 101.25  313.75 87.08333333333333  327.9166666666667 101.25  313.75 115.41666666666667  313.75 129.58333333333334  327.9166666666667 143.75  342.0833333333333 143.75  356.25 129.58333333333334  356.25 115.41666666666667  342.0833333333333 101.25  356.25 87.08333333333333  370.4166666666667 101.25  384.5833333333333 101.25  398.75 87.08333333333333  412.9166666666667 101.25  398.75 115.41666666666667  398.75 129.58333333333334  412.9166666666667 143.75  398.75 157.91666666666666  384.5833333333333 143.75  370.4166666666667 143.75  356.25 157.91666666666666  356.25 172.08333333333334  370.4166666666667 186.25  384.5833333333333 186.25  398.75 172.08333333333334  412.9166666666667 186.25  398.75 200.41666666666666  398.75 214.58333333333334  412.9166666666667 228.75  398.75 242.91666666666666  384.5833333333333 228.75  370.4166666666667 228.75  356.25 242.91666666666666  342.0833333333333 228.75  356.25 214.58333333333334  356.25 200.41666666666666  342.0833333333333 186.25  327.9166666666667 186.25  313.75 200.41666666666666  313.75 214.58333333333334  327.9166666666667 228.75  313.75 242.91666666666666  299.5833333333333 228.75  285.4166666666667 228.75  271.25 242.91666666666666  271.25 257.0833333333333  285.4166666666667 271.25  299.5833333333333 271.25  313.75 257.0833333333333  327.9166666666667 271.25  313.75 285.4166666666667  313.75 299.5833333333333  327.9166666666667 313.75  342.0833333333333 313.75  356.25 299.5833333333333  356.25 285.4166666666667  342.0833333333333 271.25  356.25 257.0833333333333  370.4166666666667 271.25  384.5833333333333 271.25  398.75 257.0833333333333  412.9166666666667 271.25  398.75 285.4166666666667  398.75 299.5833333333333  412.9166666666667 313.75  398.75 327.9166666666667  384.5833333333333 313.75  370.4166666666667 313.75  356.25 327.9166666666667  356.25 342.0833333333333  370.4166666666667 356.25  384.5833333333333 356.25  398.75 342.0833333333333  412.9166666666667 356.25  398.75 370.4166666666667  398.75 384.5833333333333  412.9166666666667 398.75  398.75 412.9166666666667  384.5833333333333 398.75  370.4166666666667 398.75  356.25 412.9166666666667  342.0833333333333 398.75  356.25 384.5833333333333  356.25 370.4166666666667  342.0833333333333 356.25  327.9166666666667 356.25  313.75 370.4166666666667  313.75 384.5833333333333  327.9166666666667 398.75  313.75 412.9166666666667  299.5833333333333 398.75  285.4166666666667 398.75  271.25 412.9166666666667  257.0833333333333 398.75  271.25 384.5833333333333  271.25 370.4166666666667  257.0833333333333 356.25  271.25 342.0833333333333  285.4166666666667 356.25  299.5833333333333 356.25  313.75 342.0833333333333  313.75 327.9166666666667  299.5833333333333 313.75  285.4166666666667 313.75  271.25 327.9166666666667  257.0833333333333 313.75  271.25 299.5833333333333  271.25 285.4166666666667  257.0833333333333 271.25  242.91666666666666 271.25  228.75 285.4166666666667  228.75 299.5833333333333  242.91666666666666 313.75  228.75 327.9166666666667  214.58333333333334 313.75  200.41666666666666 313.75  186.25 327.9166666666667  186.25 342.0833333333333  200.41666666666666 356.25  214.58333333333334 356.25  228.75 342.0833333333333  242.91666666666666 356.25  228.75 370.4166666666667  228.75 384.5833333333333  242.91666666666666 398.75  228.75 412.9166666666667  214.58333333333334 398.75  200.41666666666666 398.75  186.25 412.9166666666667  172.08333333333334 398.75  186.25 384.5833333333333  186.25 370.4166666666667  172.08333333333334 356.25  157.91666666666666 356.25  143.75 370.4166666666667  143.75 384.5833333333333  157.91666666666666 398.75  143.75 412.9166666666667  129.58333333333334 398.75  115.41666666666667 398.75  101.25 412.9166666666667  87.08333333333333 398.75" fill="#000000" stroke="#e3fff1" stroke-width="2" fill-opacity="0"></path><path id="SvgjsPath1080" d="M 87.08333333333333 405.8333333333333 L  87.08333333333333 391.6666666666667  94.16666666666667 384.5833333333333  108.33333333333333 384.5833333333333  108.33333333333333 370.4166666666667  94.16666666666667 370.4166666666667  87.08333333333333 363.3333333333333  87.08333333333333 349.1666666666667  94.16666666666667 342.0833333333333  108.33333333333333 342.0833333333333  115.41666666666667 349.1666666666667  115.41666666666667 363.3333333333333  129.58333333333334 363.3333333333333  129.58333333333334 349.1666666666667  136.66666666666666 342.0833333333333  150.83333333333334 342.0833333333333  150.83333333333334 327.9166666666667  136.66666666666666 327.9166666666667  129.58333333333334 320.8333333333333  129.58333333333334 306.6666666666667  115.41666666666667 306.6666666666667  115.41666666666667 320.8333333333333  108.33333333333333 327.9166666666667  94.16666666666667 327.9166666666667  87.08333333333333 320.8333333333333  87.08333333333333 306.6666666666667  94.16666666666667 299.5833333333333  108.33333333333333 299.5833333333333  108.33333333333333 285.4166666666667  94.16666666666667 285.4166666666667  87.08333333333333 278.3333333333333  87.08333333333333 264.1666666666667  94.16666666666667 257.0833333333333  108.33333333333333 257.0833333333333  115.41666666666667 264.1666666666667  115.41666666666667 278.3333333333333  129.58333333333334 278.3333333333333  129.58333333333334 264.1666666666667  136.66666666666666 257.0833333333333  150.83333333333334 257.0833333333333  157.91666666666666 264.1666666666667  157.91666666666666 278.3333333333333  150.83333333333334 285.4166666666667  136.66666666666666 285.4166666666667  136.66666666666666 299.5833333333333  150.83333333333334 299.5833333333333  157.91666666666666 306.6666666666667  157.91666666666666 320.8333333333333  172.08333333333334 320.8333333333333  172.08333333333334 306.6666666666667  179.16666666666666 299.5833333333333  193.33333333333334 299.5833333333333  193.33333333333334 285.4166666666667  179.16666666666666 285.4166666666667  172.08333333333334 278.3333333333333  172.08333333333334 264.1666666666667  179.16666666666666 257.0833333333333  193.33333333333334 257.0833333333333  200.41666666666666 264.1666666666667  200.41666666666666 278.3333333333333  214.58333333333334 278.3333333333333  214.58333333333334 264.1666666666667  221.66666666666666 257.0833333333333  235.83333333333334 257.0833333333333  235.83333333333334 242.91666666666666  221.66666666666666 242.91666666666666  214.58333333333334 235.83333333333334  214.58333333333334 221.66666666666666  200.41666666666666 221.66666666666666  200.41666666666666 235.83333333333334  193.33333333333334 242.91666666666666  179.16666666666666 242.91666666666666  172.08333333333334 235.83333333333334  172.08333333333334 221.66666666666666  179.16666666666666 214.58333333333334  193.33333333333334 214.58333333333334  193.33333333333334 200.41666666666666  179.16666666666666 200.41666666666666  172.08333333333334 193.33333333333334  172.08333333333334 179.16666666666666  157.91666666666666 179.16666666666666  157.91666666666666 193.33333333333334  150.83333333333334 200.41666666666666  136.66666666666666 200.41666666666666  136.66666666666666 214.58333333333334  150.83333333333334 214.58333333333334  157.91666666666666 221.66666666666666  157.91666666666666 235.83333333333334  150.83333333333334 242.91666666666666  136.66666666666666 242.91666666666666  129.58333333333334 235.83333333333334  129.58333333333334 221.66666666666666  115.41666666666667 221.66666666666666  115.41666666666667 235.83333333333334  108.33333333333333 242.91666666666666  94.16666666666667 242.91666666666666  87.08333333333333 235.83333333333334  87.08333333333333 221.66666666666666  94.16666666666667 214.58333333333334  108.33333333333333 214.58333333333334  108.33333333333333 200.41666666666666  94.16666666666667 200.41666666666666  87.08333333333333 193.33333333333334  87.08333333333333 179.16666666666666  94.16666666666667 172.08333333333334  108.33333333333333 172.08333333333334  115.41666666666667 179.16666666666666  115.41666666666667 193.33333333333334  129.58333333333334 193.33333333333334  129.58333333333334 179.16666666666666  136.66666666666666 172.08333333333334  150.83333333333334 172.08333333333334  150.83333333333334 157.91666666666666  136.66666666666666 157.91666666666666  129.58333333333334 150.83333333333334  129.58333333333334 136.66666666666666  115.41666666666667 136.66666666666666  115.41666666666667 150.83333333333334  108.33333333333333 157.91666666666666  94.16666666666667 157.91666666666666  87.08333333333333 150.83333333333334  87.08333333333333 136.66666666666666  94.16666666666667 129.58333333333334  108.33333333333333 129.58333333333334  108.33333333333333 115.41666666666667  94.16666666666667 115.41666666666667  87.08333333333333 108.33333333333333  87.08333333333333 94.16666666666667  94.16666666666667 87.08333333333333  108.33333333333333 87.08333333333333  115.41666666666667 94.16666666666667  115.41666666666667 108.33333333333333  129.58333333333334 108.33333333333333  129.58333333333334 94.16666666666667  136.66666666666666 87.08333333333333  150.83333333333334 87.08333333333333  157.91666666666666 94.16666666666667  157.91666666666666 108.33333333333333  150.83333333333334 115.41666666666667  136.66666666666666 115.41666666666667  136.66666666666666 129.58333333333334  150.83333333333334 129.58333333333334  157.91666666666666 136.66666666666666  157.91666666666666 150.83333333333334  172.08333333333334 150.83333333333334  172.08333333333334 136.66666666666666  179.16666666666666 129.58333333333334  193.33333333333334 129.58333333333334  193.33333333333334 115.41666666666667  179.16666666666666 115.41666666666667  172.08333333333334 108.33333333333333  172.08333333333334 94.16666666666667  179.16666666666666 87.08333333333333  193.33333333333334 87.08333333333333  200.41666666666666 94.16666666666667  200.41666666666666 108.33333333333333  214.58333333333334 108.33333333333333  214.58333333333334 94.16666666666667  221.66666666666666 87.08333333333333  235.83333333333334 87.08333333333333  242.91666666666666 94.16666666666667  242.91666666666666 108.33333333333333  235.83333333333334 115.41666666666667  221.66666666666666 115.41666666666667  221.66666666666666 129.58333333333334  235.83333333333334 129.58333333333334  242.91666666666666 136.66666666666666  242.91666666666666 150.83333333333334  235.83333333333334 157.91666666666666  221.66666666666666 157.91666666666666  214.58333333333334 150.83333333333334  214.58333333333334 136.66666666666666  200.41666666666666 136.66666666666666  200.41666666666666 150.83333333333334  193.33333333333334 157.91666666666666  179.16666666666666 157.91666666666666  179.16666666666666 172.08333333333334  193.33333333333334 172.08333333333334  200.41666666666666 179.16666666666666  200.41666666666666 193.33333333333334  214.58333333333334 193.33333333333334  214.58333333333334 179.16666666666666  221.66666666666666 172.08333333333334  235.83333333333334 172.08333333333334  242.91666666666666 179.16666666666666  242.91666666666666 193.33333333333334  235.83333333333334 200.41666666666666  221.66666666666666 200.41666666666666  221.66666666666666 214.58333333333334  235.83333333333334 214.58333333333334  242.91666666666666 221.66666666666666  242.91666666666666 235.83333333333334  257.0833333333333 235.83333333333334  257.0833333333333 221.66666666666666  264.1666666666667 214.58333333333334  278.3333333333333 214.58333333333334  278.3333333333333 200.41666666666666  264.1666666666667 200.41666666666666  257.0833333333333 193.33333333333334  257.0833333333333 179.16666666666666  264.1666666666667 172.08333333333334  278.3333333333333 172.08333333333334  285.4166666666667 179.16666666666666  285.4166666666667 193.33333333333334  299.5833333333333 193.33333333333334  299.5833333333333 179.16666666666666  306.6666666666667 172.08333333333334  320.8333333333333 172.08333333333334  320.8333333333333 157.91666666666666  306.6666666666667 157.91666666666666  299.5833333333333 150.83333333333334  299.5833333333333 136.66666666666666  285.4166666666667 136.66666666666666  285.4166666666667 150.83333333333334  278.3333333333333 157.91666666666666  264.1666666666667 157.91666666666666  257.0833333333333 150.83333333333334  257.0833333333333 136.66666666666666  264.1666666666667 129.58333333333334  278.3333333333333 129.58333333333334  278.3333333333333 115.41666666666667  264.1666666666667 115.41666666666667  257.0833333333333 108.33333333333333  257.0833333333333 94.16666666666667  264.1666666666667 87.08333333333333  278.3333333333333 87.08333333333333  285.4166666666667 94.16666666666667  285.4166666666667 108.33333333333333  299.5833333333333 108.33333333333333  299.5833333333333 94.16666666666667  306.6666666666667 87.08333333333333  320.8333333333333 87.08333333333333  327.9166666666667 94.16666666666667  327.9166666666667 108.33333333333333  320.8333333333333 115.41666666666667  306.6666666666667 115.41666666666667  306.6666666666667 129.58333333333334  320.8333333333333 129.58333333333334  327.9166666666667 136.66666666666666  327.9166666666667 150.83333333333334  342.0833333333333 150.83333333333334  342.0833333333333 136.66666666666666  349.1666666666667 129.58333333333334  363.3333333333333 129.58333333333334  363.3333333333333 115.41666666666667  349.1666666666667 115.41666666666667  342.0833333333333 108.33333333333333  342.0833333333333 94.16666666666667  349.1666666666667 87.08333333333333  363.3333333333333 87.08333333333333  370.4166666666667 94.16666666666667  370.4166666666667 108.33333333333333  384.5833333333333 108.33333333333333  384.5833333333333 94.16666666666667  391.6666666666667 87.08333333333333  405.8333333333333 87.08333333333333  412.9166666666667 94.16666666666667  412.9166666666667 108.33333333333333  405.8333333333333 115.41666666666667  391.6666666666667 115.41666666666667  391.6666666666667 129.58333333333334  405.8333333333333 129.58333333333334  412.9166666666667 136.66666666666666  412.9166666666667 150.83333333333334  405.8333333333333 157.91666666666666  391.6666666666667 157.91666666666666  384.5833333333333 150.83333333333334  384.5833333333333 136.66666666666666  370.4166666666667 136.66666666666666  370.4166666666667 150.83333333333334  363.3333333333333 157.91666666666666  349.1666666666667 157.91666666666666  349.1666666666667 172.08333333333334  363.3333333333333 172.08333333333334  370.4166666666667 179.16666666666666  370.4166666666667 193.33333333333334  384.5833333333333 193.33333333333334  384.5833333333333 179.16666666666666  391.6666666666667 172.08333333333334  405.8333333333333 172.08333333333334  412.9166666666667 179.16666666666666  412.9166666666667 193.33333333333334  405.8333333333333 200.41666666666666  391.6666666666667 200.41666666666666  391.6666666666667 214.58333333333334  405.8333333333333 214.58333333333334  412.9166666666667 221.66666666666666  412.9166666666667 235.83333333333334  405.8333333333333 242.91666666666666  391.6666666666667 242.91666666666666  384.5833333333333 235.83333333333334  384.5833333333333 221.66666666666666  370.4166666666667 221.66666666666666  370.4166666666667 235.83333333333334  363.3333333333333 242.91666666666666  349.1666666666667 242.91666666666666  342.0833333333333 235.83333333333334  342.0833333333333 221.66666666666666  349.1666666666667 214.58333333333334  363.3333333333333 214.58333333333334  363.3333333333333 200.41666666666666  349.1666666666667 200.41666666666666  342.0833333333333 193.33333333333334  342.0833333333333 179.16666666666666  327.9166666666667 179.16666666666666  327.9166666666667 193.33333333333334  320.8333333333333 200.41666666666666  306.6666666666667 200.41666666666666  306.6666666666667 214.58333333333334  320.8333333333333 214.58333333333334  327.9166666666667 221.66666666666666  327.9166666666667 235.83333333333334  320.8333333333333 242.91666666666666  306.6666666666667 242.91666666666666  299.5833333333333 235.83333333333334  299.5833333333333 221.66666666666666  285.4166666666667 221.66666666666666  285.4166666666667 235.83333333333334  278.3333333333333 242.91666666666666  264.1666666666667 242.91666666666666  264.1666666666667 257.0833333333333  278.3333333333333 257.0833333333333  285.4166666666667 264.1666666666667  285.4166666666667 278.3333333333333  299.5833333333333 278.3333333333333  299.5833333333333 264.1666666666667  306.6666666666667 257.0833333333333  320.8333333333333 257.0833333333333  327.9166666666667 264.1666666666667  327.9166666666667 278.3333333333333  320.8333333333333 285.4166666666667  306.6666666666667 285.4166666666667  306.6666666666667 299.5833333333333  320.8333333333333 299.5833333333333  327.9166666666667 306.6666666666667  327.9166666666667 320.8333333333333  342.0833333333333 320.8333333333333  342.0833333333333 306.6666666666667  349.1666666666667 299.5833333333333  363.3333333333333 299.5833333333333  363.3333333333333 285.4166666666667  349.1666666666667 285.4166666666667  342.0833333333333 278.3333333333333  342.0833333333333 264.1666666666667  349.1666666666667 257.0833333333333  363.3333333333333 257.0833333333333  370.4166666666667 264.1666666666667  370.4166666666667 278.3333333333333  384.5833333333333 278.3333333333333  384.5833333333333 264.1666666666667  391.6666666666667 257.0833333333333  405.8333333333333 257.0833333333333  412.9166666666667 264.1666666666667  412.9166666666667 278.3333333333333  405.8333333333333 285.4166666666667  391.6666666666667 285.4166666666667  391.6666666666667 299.5833333333333  405.8333333333333 299.5833333333333  412.9166666666667 306.6666666666667  412.9166666666667 320.8333333333333  405.8333333333333 327.9166666666667  391.6666666666667 327.9166666666667  384.5833333333333 320.8333333333333  384.5833333333333 306.6666666666667  370.4166666666667 306.6666666666667  370.4166666666667 320.8333333333333  363.3333333333333 327.9166666666667  349.1666666666667 327.9166666666667  349.1666666666667 342.0833333333333  363.3333333333333 342.0833333333333  370.4166666666667 349.1666666666667  370.4166666666667 363.3333333333333  384.5833333333333 363.3333333333333  384.5833333333333 349.1666666666667  391.6666666666667 342.0833333333333  405.8333333333333 342.0833333333333  412.9166666666667 349.1666666666667  412.9166666666667 363.3333333333333  405.8333333333333 370.4166666666667  391.6666666666667 370.4166666666667  391.6666666666667 384.5833333333333  405.8333333333333 384.5833333333333  412.9166666666667 391.6666666666667  412.9166666666667 405.8333333333333  405.8333333333333 412.9166666666667  391.6666666666667 412.9166666666667  384.5833333333333 405.8333333333333  384.5833333333333 391.6666666666667  370.4166666666667 391.6666666666667  370.4166666666667 405.8333333333333  363.3333333333333 412.9166666666667  349.1666666666667 412.9166666666667  342.0833333333333 405.8333333333333  342.0833333333333 391.6666666666667  349.1666666666667 384.5833333333333  363.3333333333333 384.5833333333333  363.3333333333333 370.4166666666667  349.1666666666667 370.4166666666667  342.0833333333333 363.3333333333333  342.0833333333333 349.1666666666667  327.9166666666667 349.1666666666667  327.9166666666667 363.3333333333333  320.8333333333333 370.4166666666667  306.6666666666667 370.4166666666667  306.6666666666667 384.5833333333333  320.8333333333333 384.5833333333333  327.9166666666667 391.6666666666667  327.9166666666667 405.8333333333333  320.8333333333333 412.9166666666667  306.6666666666667 412.9166666666667  299.5833333333333 405.8333333333333  299.5833333333333 391.6666666666667  285.4166666666667 391.6666666666667  285.4166666666667 405.8333333333333  278.3333333333333 412.9166666666667  264.1666666666667 412.9166666666667  257.0833333333333 405.8333333333333  257.0833333333333 391.6666666666667  264.1666666666667 384.5833333333333  278.3333333333333 384.5833333333333  278.3333333333333 370.4166666666667  264.1666666666667 370.4166666666667  257.0833333333333 363.3333333333333  257.0833333333333 349.1666666666667  264.1666666666667 342.0833333333333  278.3333333333333 342.0833333333333  285.4166666666667 349.1666666666667  285.4166666666667 363.3333333333333  299.5833333333333 363.3333333333333  299.5833333333333 349.1666666666667  306.6666666666667 342.0833333333333  320.8333333333333 342.0833333333333  320.8333333333333 327.9166666666667  306.6666666666667 327.9166666666667  299.5833333333333 320.8333333333333  299.5833333333333 306.6666666666667  285.4166666666667 306.6666666666667  285.4166666666667 320.8333333333333  278.3333333333333 327.9166666666667  264.1666666666667 327.9166666666667  257.0833333333333 320.8333333333333  257.0833333333333 306.6666666666667  264.1666666666667 299.5833333333333  278.3333333333333 299.5833333333333  278.3333333333333 285.4166666666667  264.1666666666667 285.4166666666667  257.0833333333333 278.3333333333333  257.0833333333333 264.1666666666667  242.91666666666666 264.1666666666667  242.91666666666666 278.3333333333333  235.83333333333334 285.4166666666667  221.66666666666666 285.4166666666667  221.66666666666666 299.5833333333333  235.83333333333334 299.5833333333333  242.91666666666666 306.6666666666667  242.91666666666666 320.8333333333333  235.83333333333334 327.9166666666667  221.66666666666666 327.9166666666667  214.58333333333334 320.8333333333333  214.58333333333334 306.6666666666667  200.41666666666666 306.6666666666667  200.41666666666666 320.8333333333333  193.33333333333334 327.9166666666667  179.16666666666666 327.9166666666667  179.16666666666666 342.0833333333333  193.33333333333334 342.0833333333333  200.41666666666666 349.1666666666667  200.41666666666666 363.3333333333333  214.58333333333334 363.3333333333333  214.58333333333334 349.1666666666667  221.66666666666666 342.0833333333333  235.83333333333334 342.0833333333333  242.91666666666666 349.1666666666667  242.91666666666666 363.3333333333333  235.83333333333334 370.4166666666667  221.66666666666666 370.4166666666667  221.66666666666666 384.5833333333333  235.83333333333334 384.5833333333333  242.91666666666666 391.6666666666667  242.91666666666666 405.8333333333333  235.83333333333334 412.9166666666667  221.66666666666666 412.9166666666667  214.58333333333334 405.8333333333333  214.58333333333334 391.6666666666667  200.41666666666666 391.6666666666667  200.41666666666666 405.8333333333333  193.33333333333334 412.9166666666667  179.16666666666666 412.9166666666667  172.08333333333334 405.8333333333333  172.08333333333334 391.6666666666667  179.16666666666666 384.5833333333333  193.33333333333334 384.5833333333333  193.33333333333334 370.4166666666667  179.16666666666666 370.4166666666667  172.08333333333334 363.3333333333333  172.08333333333334 349.1666666666667  157.91666666666666 349.1666666666667  157.91666666666666 363.3333333333333  150.83333333333334 370.4166666666667  136.66666666666666 370.4166666666667  136.66666666666666 384.5833333333333  150.83333333333334 384.5833333333333  157.91666666666666 391.6666666666667  157.91666666666666 405.8333333333333  150.83333333333334 412.9166666666667  136.66666666666666 412.9166666666667  129.58333333333334 405.8333333333333  129.58333333333334 391.6666666666667  115.41666666666667 391.6666666666667  115.41666666666667 405.8333333333333  108.33333333333333 412.9166666666667  94.16666666666667 412.9166666666667  87.08333333333333 405.8333333333333" fill="#000000" stroke="#e3fff1" stroke-width="2" fill-opacity="0"></path></svg>