<?xml version="1.0" standalone="no"?>
<svg id="SvgjsSvg1054" width="500" height="500" xmlns="http://www.w3.org/2000/svg" version="1.1" xmlns:xlink="http://www.w3.org/1999/xlink" xmlns:svgjs="http://svgjs.com/svgjs"><defs id="SvgjsDefs1055"></defs><rect id="SvgjsRect1056" width="500" height="500" x="0" y="0" fill="#7980ff" stroke-width="0"></rect><path id="SvgjsPath1057" d="M 24.791666666666668 465.625 L  34.375 456.0416666666667  34.375 446.4583333333333  24.791666666666668 436.875  34.375 427.2916666666667  43.958333333333336 436.875  53.541666666666664 436.875  63.125 427.2916666666667  63.125 417.7083333333333  53.541666666666664 408.125  43.958333333333336 408.125  34.375 417.7083333333333  24.791666666666668 408.125  34.375 398.5416666666667  34.375 388.9583333333333  24.791666666666668 379.375  34.375 369.7916666666667  43.958333333333336 379.375  53.541666666666664 379.375  63.125 369.7916666666667  72.70833333333333 379.375  63.125 388.9583333333333  63.125 398.5416666666667  72.70833333333333 408.125  82.29166666666667 408.125  91.875 398.5416666666667  91.875 388.9583333333333  82.29166666666667 379.375  91.875 369.7916666666667  101.45833333333333 379.375  111.04166666666667 379.375  120.625 369.7916666666667  120.625 360.2083333333333  111.04166666666667 350.625  101.45833333333333 350.625  91.875 360.2083333333333  82.29166666666667 350.625  91.875 341.0416666666667  91.875 331.4583333333333  82.29166666666667 321.875  72.70833333333333 321.875  63.125 331.4583333333333  63.125 341.0416666666667  72.70833333333333 350.625  63.125 360.2083333333333  53.541666666666664 350.625  43.958333333333336 350.625  34.375 360.2083333333333  24.791666666666668 350.625  34.375 341.0416666666667  34.375 331.4583333333333  24.791666666666668 321.875  34.375 312.2916666666667  43.958333333333336 321.875  53.541666666666664 321.875  63.125 312.2916666666667  63.125 302.7083333333333  53.541666666666664 293.125  43.958333333333336 293.125  34.375 302.7083333333333  24.791666666666668 293.125  34.375 283.5416666666667  34.375 273.9583333333333  24.791666666666668 264.375  34.375 254.79166666666666  43.958333333333336 264.375  53.541666666666664 264.375  63.125 254.79166666666666  72.70833333333333 264.375  63.125 273.9583333333333  63.125 283.5416666666667  72.70833333333333 293.125  82.29166666666667 293.125  91.875 283.5416666666667  91.875 273.9583333333333  82.29166666666667 264.375  91.875 254.79166666666666  101.45833333333333 264.375  111.04166666666667 264.375  120.625 254.79166666666666  130.20833333333334 264.375  120.625 273.9583333333333  120.625 283.5416666666667  130.20833333333334 293.125  120.625 302.7083333333333  111.04166666666667 293.125  101.45833333333333 293.125  91.875 302.7083333333333  91.875 312.2916666666667  101.45833333333333 321.875  111.04166666666667 321.875  120.625 312.2916666666667  130.20833333333334 321.875  120.625 331.4583333333333  120.625 341.0416666666667  130.20833333333334 350.625  139.79166666666666 350.625  149.375 341.0416666666667  149.375 331.4583333333333  139.79166666666666 321.875  149.375 312.2916666666667  158.95833333333334 321.875  168.54166666666666 321.875  178.125 312.2916666666667  178.125 302.7083333333333  168.54166666666666 293.125  158.95833333333334 293.125  149.375 302.7083333333333  139.79166666666666 293.125  149.375 283.5416666666667  149.375 273.9583333333333  139.79166666666666 264.375  149.375 254.79166666666666  158.95833333333334 264.375  168.54166666666666 264.375  178.125 254.79166666666666  187.70833333333334 264.375  178.125 273.9583333333333  178.125 283.5416666666667  187.70833333333334 293.125  197.29166666666666 293.125  206.875 283.5416666666667  206.875 273.9583333333333  197.29166666666666 264.375  206.875 254.79166666666666  216.45833333333334 264.375  226.04166666666666 264.375  235.625 254.79166666666666  235.625 245.20833333333334  226.04166666666666 235.625  216.45833333333334 235.625  206.875 245.20833333333334  197.29166666666666 235.625  206.875 226.04166666666666  206.875 216.45833333333334  197.29166666666666 206.875  187.70833333333334 206.875  178.125 216.45833333333334  178.125 226.04166666666666  187.70833333333334 235.625  178.125 245.20833333333334  168.54166666666666 235.625  158.95833333333334 235.625  149.375 245.20833333333334  139.79166666666666 235.625  149.375 226.04166666666666  149.375 216.45833333333334  139.79166666666666 206.875  149.375 197.29166666666666  158.95833333333334 206.875  168.54166666666666 206.875  178.125 197.29166666666666  178.125 187.70833333333334  168.54166666666666 178.125  158.95833333333334 178.125  149.375 187.70833333333334  139.79166666666666 178.125  149.375 168.54166666666666  149.375 158.95833333333334  139.79166666666666 149.375  130.20833333333334 149.375  120.625 158.95833333333334  120.625 168.54166666666666  130.20833333333334 178.125  120.625 187.70833333333334  111.04166666666667 178.125  101.45833333333333 178.125  91.875 187.70833333333334  91.875 197.29166666666666  101.45833333333333 206.875  111.04166666666667 206.875  120.625 197.29166666666666  130.20833333333334 206.875  120.625 216.45833333333334  120.625 226.04166666666666  130.20833333333334 235.625  120.625 245.20833333333334  111.04166666666667 235.625  101.45833333333333 235.625  91.875 245.20833333333334  82.29166666666667 235.625  91.875 226.04166666666666  91.875 216.45833333333334  82.29166666666667 206.875  72.70833333333333 206.875  63.125 216.45833333333334  63.125 226.04166666666666  72.70833333333333 235.625  63.125 245.20833333333334  53.541666666666664 235.625  43.958333333333336 235.625  34.375 245.20833333333334  24.791666666666668 235.625  34.375 226.04166666666666  34.375 216.45833333333334  24.791666666666668 206.875  34.375 197.29166666666666  43.958333333333336 206.875  53.541666666666664 206.875  63.125 197.29166666666666  63.125 187.70833333333334  53.541666666666664 178.125  43.958333333333336 178.125  34.375 187.70833333333334  24.791666666666668 178.125  34.375 168.54166666666666  34.375 158.95833333333334  24.791666666666668 149.375  34.375 139.79166666666666  43.958333333333336 149.375  53.541666666666664 149.375  63.125 139.79166666666666  72.70833333333333 149.375  63.125 158.95833333333334  63.125 168.54166666666666  72.70833333333333 178.125  82.29166666666667 178.125  91.875 168.54166666666666  91.875 158.95833333333334  82.29166666666667 149.375  91.875 139.79166666666666  101.45833333333333 149.375  111.04166666666667 149.375  120.625 139.79166666666666  120.625 130.20833333333334  111.04166666666667 120.625  101.45833333333333 120.625  91.875 130.20833333333334  82.29166666666667 120.625  91.875 111.04166666666667  91.875 101.45833333333333  82.29166666666667 91.875  72.70833333333333 91.875  63.125 101.45833333333333  63.125 111.04166666666667  72.70833333333333 120.625  63.125 130.20833333333334  53.541666666666664 120.625  43.958333333333336 120.625  34.375 130.20833333333334  24.791666666666668 120.625  34.375 111.04166666666667  34.375 101.45833333333333  24.791666666666668 91.875  34.375 82.29166666666667  43.958333333333336 91.875  53.541666666666664 91.875  63.125 82.29166666666667  63.125 72.70833333333333  53.541666666666664 63.125  43.958333333333336 63.125  34.375 72.70833333333333  24.791666666666668 63.125  34.375 53.541666666666664  34.375 43.958333333333336  24.791666666666668 34.375  34.375 24.791666666666668  43.958333333333336 34.375  53.541666666666664 34.375  63.125 24.791666666666668  72.70833333333333 34.375  63.125 43.958333333333336  63.125 53.541666666666664  72.70833333333333 63.125  82.29166666666667 63.125  91.875 53.541666666666664  91.875 43.958333333333336  82.29166666666667 34.375  91.875 24.791666666666668  101.45833333333333 34.375  111.04166666666667 34.375  120.625 24.791666666666668  130.20833333333334 34.375  120.625 43.958333333333336  120.625 53.541666666666664  130.20833333333334 63.125  120.625 72.70833333333333  111.04166666666667 63.125  101.45833333333333 63.125  91.875 72.70833333333333  91.875 82.29166666666667  101.45833333333333 91.875  111.04166666666667 91.875  120.625 82.29166666666667  130.20833333333334 91.875  120.625 101.45833333333333  120.625 111.04166666666667  130.20833333333334 120.625  139.79166666666666 120.625  149.375 111.04166666666667  149.375 101.45833333333333  139.79166666666666 91.875  149.375 82.29166666666667  158.95833333333334 91.875  168.54166666666666 91.875  178.125 82.29166666666667  178.125 72.70833333333333  168.54166666666666 63.125  158.95833333333334 63.125  149.375 72.70833333333333  139.79166666666666 63.125  149.375 53.541666666666664  149.375 43.958333333333336  139.79166666666666 34.375  149.375 24.791666666666668  158.95833333333334 34.375  168.54166666666666 34.375  178.125 24.791666666666668  187.70833333333334 34.375  178.125 43.958333333333336  178.125 53.541666666666664  187.70833333333334 63.125  197.29166666666666 63.125  206.875 53.541666666666664  206.875 43.958333333333336  197.29166666666666 34.375  206.875 24.791666666666668  216.45833333333334 34.375  226.04166666666666 34.375  235.625 24.791666666666668  245.20833333333334 34.375  235.625 43.958333333333336  235.625 53.541666666666664  245.20833333333334 63.125  235.625 72.70833333333333  226.04166666666666 63.125  216.45833333333334 63.125  206.875 72.70833333333333  206.875 82.29166666666667  216.45833333333334 91.875  226.04166666666666 91.875  235.625 82.29166666666667  245.20833333333334 91.875  235.625 101.45833333333333  235.625 111.04166666666667  245.20833333333334 120.625  235.625 130.20833333333334  226.04166666666666 120.625  216.45833333333334 120.625  206.875 130.20833333333334  197.29166666666666 120.625  206.875 111.04166666666667  206.875 101.45833333333333  197.29166666666666 91.875  187.70833333333334 91.875  178.125 101.45833333333333  178.125 111.04166666666667  187.70833333333334 120.625  178.125 130.20833333333334  168.54166666666666 120.625  158.95833333333334 120.625  149.375 130.20833333333334  149.375 139.79166666666666  158.95833333333334 149.375  168.54166666666666 149.375  178.125 139.79166666666666  187.70833333333334 149.375  178.125 158.95833333333334  178.125 168.54166666666666  187.70833333333334 178.125  197.29166666666666 178.125  206.875 168.54166666666666  206.875 158.95833333333334  197.29166666666666 149.375  206.875 139.79166666666666  216.45833333333334 149.375  226.04166666666666 149.375  235.625 139.79166666666666  245.20833333333334 149.375  235.625 158.95833333333334  235.625 168.54166666666666  245.20833333333334 178.125  235.625 187.70833333333334  226.04166666666666 178.125  216.45833333333334 178.125  206.875 187.70833333333334  206.875 197.29166666666666  216.45833333333334 206.875  226.04166666666666 206.875  235.625 197.29166666666666  245.20833333333334 206.875  235.625 216.45833333333334  235.625 226.04166666666666  245.20833333333334 235.625  254.79166666666666 235.625  264.375 226.04166666666666  264.375 216.45833333333334  254.79166666666666 206.875  264.375 197.29166666666666  273.9583333333333 206.875  283.5416666666667 206.875  293.125 197.29166666666666  293.125 187.70833333333334  283.5416666666667 178.125  273.9583333333333 178.125  264.375 187.70833333333334  254.79166666666666 178.125  264.375 168.54166666666666  264.375 158.95833333333334  254.79166666666666 149.375  264.375 139.79166666666666  273.9583333333333 149.375  283.5416666666667 149.375  293.125 139.79166666666666  302.7083333333333 149.375  293.125 158.95833333333334  293.125 168.54166666666666  302.7083333333333 178.125  312.2916666666667 178.125  321.875 168.54166666666666  321.875 158.95833333333334  312.2916666666667 149.375  321.875 139.79166666666666  331.4583333333333 149.375  341.0416666666667 149.375  350.625 139.79166666666666  350.625 130.20833333333334  341.0416666666667 120.625  331.4583333333333 120.625  321.875 130.20833333333334  312.2916666666667 120.625  321.875 111.04166666666667  321.875 101.45833333333333  312.2916666666667 91.875  302.7083333333333 91.875  293.125 101.45833333333333  293.125 111.04166666666667  302.7083333333333 120.625  293.125 130.20833333333334  283.5416666666667 120.625  273.9583333333333 120.625  264.375 130.20833333333334  254.79166666666666 120.625  264.375 111.04166666666667  264.375 101.45833333333333  254.79166666666666 91.875  264.375 82.29166666666667  273.9583333333333 91.875  283.5416666666667 91.875  293.125 82.29166666666667  293.125 72.70833333333333  283.5416666666667 63.125  273.9583333333333 63.125  264.375 72.70833333333333  254.79166666666666 63.125  264.375 53.541666666666664  264.375 43.958333333333336  254.79166666666666 34.375  264.375 24.791666666666668  273.9583333333333 34.375  283.5416666666667 34.375  293.125 24.791666666666668  302.7083333333333 34.375  293.125 43.958333333333336  293.125 53.541666666666664  302.7083333333333 63.125  312.2916666666667 63.125  321.875 53.541666666666664  321.875 43.958333333333336  312.2916666666667 34.375  321.875 24.791666666666668  331.4583333333333 34.375  341.0416666666667 34.375  350.625 24.791666666666668  360.2083333333333 34.375  350.625 43.958333333333336  350.625 53.541666666666664  360.2083333333333 63.125  350.625 72.70833333333333  341.0416666666667 63.125  331.4583333333333 63.125  321.875 72.70833333333333  321.875 82.29166666666667  331.4583333333333 91.875  341.0416666666667 91.875  350.625 82.29166666666667  360.2083333333333 91.875  350.625 101.45833333333333  350.625 111.04166666666667  360.2083333333333 120.625  369.7916666666667 120.625  379.375 111.04166666666667  379.375 101.45833333333333  369.7916666666667 91.875  379.375 82.29166666666667  388.9583333333333 91.875  398.5416666666667 91.875  408.125 82.29166666666667  408.125 72.70833333333333  398.5416666666667 63.125  388.9583333333333 63.125  379.375 72.70833333333333  369.7916666666667 63.125  379.375 53.541666666666664  379.375 43.958333333333336  369.7916666666667 34.375  379.375 24.791666666666668  388.9583333333333 34.375  398.5416666666667 34.375  408.125 24.791666666666668  417.7083333333333 34.375  408.125 43.958333333333336  408.125 53.541666666666664  417.7083333333333 63.125  427.2916666666667 63.125  436.875 53.541666666666664  436.875 43.958333333333336  427.2916666666667 34.375  436.875 24.791666666666668  446.4583333333333 34.375  456.0416666666667 34.375  465.625 24.791666666666668  475.2083333333333 34.375  465.625 43.958333333333336  465.625 53.541666666666664  475.2083333333333 63.125  465.625 72.70833333333333  456.0416666666667 63.125  446.4583333333333 63.125  436.875 72.70833333333333  436.875 82.29166666666667  446.4583333333333 91.875  456.0416666666667 91.875  465.625 82.29166666666667  475.2083333333333 91.875  465.625 101.45833333333333  465.625 111.04166666666667  475.2083333333333 120.625  465.625 130.20833333333334  456.0416666666667 120.625  446.4583333333333 120.625  436.875 130.20833333333334  427.2916666666667 120.625  436.875 111.04166666666667  436.875 101.45833333333333  427.2916666666667 91.875  417.7083333333333 91.875  408.125 101.45833333333333  408.125 111.04166666666667  417.7083333333333 120.625  408.125 130.20833333333334  398.5416666666667 120.625  388.9583333333333 120.625  379.375 130.20833333333334  379.375 139.79166666666666  388.9583333333333 149.375  398.5416666666667 149.375  408.125 139.79166666666666  417.7083333333333 149.375  408.125 158.95833333333334  408.125 168.54166666666666  417.7083333333333 178.125  427.2916666666667 178.125  436.875 168.54166666666666  436.875 158.95833333333334  427.2916666666667 149.375  436.875 139.79166666666666  446.4583333333333 149.375  456.0416666666667 149.375  465.625 139.79166666666666  475.2083333333333 149.375  465.625 158.95833333333334  465.625 168.54166666666666  475.2083333333333 178.125  465.625 187.70833333333334  456.0416666666667 178.125  446.4583333333333 178.125  436.875 187.70833333333334  436.875 197.29166666666666  446.4583333333333 206.875  456.0416666666667 206.875  465.625 197.29166666666666  475.2083333333333 206.875  465.625 216.45833333333334  465.625 226.04166666666666  475.2083333333333 235.625  465.625 245.20833333333334  456.0416666666667 235.625  446.4583333333333 235.625  436.875 245.20833333333334  427.2916666666667 235.625  436.875 226.04166666666666  436.875 216.45833333333334  427.2916666666667 206.875  417.7083333333333 206.875  408.125 216.45833333333334  408.125 226.04166666666666  417.7083333333333 235.625  408.125 245.20833333333334  398.5416666666667 235.625  388.9583333333333 235.625  379.375 245.20833333333334  369.7916666666667 235.625  379.375 226.04166666666666  379.375 216.45833333333334  369.7916666666667 206.875  379.375 197.29166666666666  388.9583333333333 206.875  398.5416666666667 206.875  408.125 197.29166666666666  408.125 187.70833333333334  398.5416666666667 178.125  388.9583333333333 178.125  379.375 187.70833333333334  369.7916666666667 178.125  379.375 168.54166666666666  379.375 158.95833333333334  369.7916666666667 149.375  360.2083333333333 149.375  350.625 158.95833333333334  350.625 168.54166666666666  360.2083333333333 178.125  350.625 187.70833333333334  341.0416666666667 178.125  331.4583333333333 178.125  321.875 187.70833333333334  321.875 197.29166666666666  331.4583333333333 206.875  341.0416666666667 206.875  350.625 197.29166666666666  360.2083333333333 206.875  350.625 216.45833333333334  350.625 226.04166666666666  360.2083333333333 235.625  350.625 245.20833333333334  341.0416666666667 235.625  331.4583333333333 235.625  321.875 245.20833333333334  312.2916666666667 235.625  321.875 226.04166666666666  321.875 216.45833333333334  312.2916666666667 206.875  302.7083333333333 206.875  293.125 216.45833333333334  293.125 226.04166666666666  302.7083333333333 235.625  293.125 245.20833333333334  283.5416666666667 235.625  273.9583333333333 235.625  264.375 245.20833333333334  264.375 254.79166666666666  273.9583333333333 264.375  283.5416666666667 264.375  293.125 254.79166666666666  302.7083333333333 264.375  293.125 273.9583333333333  293.125 283.5416666666667  302.7083333333333 293.125  312.2916666666667 293.125  321.875 283.5416666666667  321.875 273.9583333333333  312.2916666666667 264.375  321.875 254.79166666666666  331.4583333333333 264.375  341.0416666666667 264.375  350.625 254.79166666666666  360.2083333333333 264.375  350.625 273.9583333333333  350.625 283.5416666666667  360.2083333333333 293.125  350.625 302.7083333333333  341.0416666666667 293.125  331.4583333333333 293.125  321.875 302.7083333333333  321.875 312.2916666666667  331.4583333333333 321.875  341.0416666666667 321.875  350.625 312.2916666666667  360.2083333333333 321.875  350.625 331.4583333333333  350.625 341.0416666666667  360.2083333333333 350.625  369.7916666666667 350.625  379.375 341.0416666666667  379.375 331.4583333333333  369.7916666666667 321.875  379.375 312.2916666666667  388.9583333333333 321.875  398.5416666666667 321.875  408.125 312.2916666666667  408.125 302.7083333333333  398.5416666666667 293.125  388.9583333333333 293.125  379.375 302.7083333333333  369.7916666666667 293.125  379.375 283.5416666666667  379.375 273.9583333333333  369.7916666666667 264.375  379.375 254.79166666666666  388.9583333333333 264.375  398.5416666666667 264.375  408.125 254.79166666666666  417.7083333333333 264.375  408.125 273.9583333333333  408.125 283.5416666666667  417.7083333333333 293.125  427.2916666666667 293.125  436.875 283.5416666666667  436.875 273.9583333333333  427.2916666666667 264.375  436.875 254.79166666666666  446.4583333333333 264.375  456.0416666666667 264.375  465.625 254.79166666666666  475.2083333333333 264.375  465.625 273.9583333333333  465.625 283.5416666666667  475.2083333333333 293.125  465.625 302.7083333333333  456.0416666666667 293.125  446.4583333333333 293.125  436.875 302.7083333333333  436.875 312.2916666666667  446.4583333333333 321.875  456.0416666666667 321.875  465.625 312.2916666666667  475.2083333333333 321.875  465.625 331.4583333333333  465.625 341.0416666666667  475.2083333333333 350.625  465.625 360.2083333333333  456.0416666666667 350.625  446.4583333333333 350.625  436.875 360.2083333333333  427.2916666666667 350.625  436.875 341.0416666666667  436.875 331.4583333333333  427.2916666666667 321.875  417.7083333333333 321.875  408.125 331.4583333333333  408.125 341.0416666666667  417.7083333333333 350.625  408.125 360.2083333333333  398.5416666666667 350.625  388.9583333333333 350.625  379.375 360.2083333333333  379.375 369.7916666666667  388.9583333333333 379.375  398.5416666666667 379.375  408.125 369.7916666666667  417.7083333333333 379.375  408.125 388.9583333333333  408.125 398.5416666666667  417.7083333333333 408.125  427.2916666666667 408.125  436.875 398.5416666666667  436.875 388.9583333333333  427.2916666666667 379.375  436.875 369.7916666666667  446.4583333333333 379.375  456.0416666666667 379.375  465.625 369.7916666666667  475.2083333333333 379.375  465.625 388.9583333333333  465.625 398.5416666666667  475.2083333333333 408.125  465.625 417.7083333333333  456.0416666666667 408.125  446.4583333333333 408.125  436.875 417.7083333333333  436.875 427.2916666666667  446.4583333333333 436.875  456.0416666666667 436.875  465.625 427.2916666666667  475.2083333333333 436.875  465.625 446.4583333333333  465.625 456.0416666666667  475.2083333333333 465.625  465.625 475.2083333333333  456.0416666666667 465.625  446.4583333333333 465.625  436.875 475.2083333333333  427.2916666666667 465.625  436.875 456.0416666666667  436.875 446.4583333333333  427.2916666666667 436.875  417.7083333333333 436.875  408.125 446.4583333333333  408.125 456.0416666666667  417.7083333333333 465.625  408.125 475.2083333333333  398.5416666666667 465.625  388.9583333333333 465.625  379.375 475.2083333333333  369.7916666666667 465.625  379.375 456.0416666666667  379.375 446.4583333333333  369.7916666666667 436.875  379.375 427.2916666666667  388.9583333333333 436.875  398.5416666666667 436.875  408.125 427.2916666666667  408.125 417.7083333333333  398.5416666666667 408.125  388.9583333333333 408.125  379.375 417.7083333333333  369.7916666666667 408.125  379.375 398.5416666666667  379.375 388.9583333333333  369.7916666666667 379.375  360.2083333333333 379.375  350.625 388.9583333333333  350.625 398.5416666666667  360.2083333333333 408.125  350.625 417.7083333333333  341.0416666666667 408.125  331.4583333333333 408.125  321.875 417.7083333333333  321.875 427.2916666666667  331.4583333333333 436.875  341.0416666666667 436.875  350.625 427.2916666666667  360.2083333333333 436.875  350.625 446.4583333333333  350.625 456.0416666666667  360.2083333333333 465.625  350.625 475.2083333333333  341.0416666666667 465.625  331.4583333333333 465.625  321.875 475.2083333333333  312.2916666666667 465.625  321.875 456.0416666666667  321.875 446.4583333333333  312.2916666666667 436.875  302.7083333333333 436.875  293.125 446.4583333333333  293.125 456.0416666666667  302.7083333333333 465.625  293.125 475.2083333333333  283.5416666666667 465.625  273.9583333333333 465.625  264.375 475.2083333333333  254.79166666666666 465.625  264.375 456.0416666666667  264.375 446.4583333333333  254.79166666666666 436.875  264.375 427.2916666666667  273.9583333333333 436.875  283.5416666666667 436.875  293.125 427.2916666666667  293.125 417.7083333333333  283.5416666666667 408.125  273.9583333333333 408.125  264.375 417.7083333333333  254.79166666666666 408.125  264.375 398.5416666666667  264.375 388.9583333333333  254.79166666666666 379.375  264.375 369.7916666666667  273.9583333333333 379.375  283.5416666666667 379.375  293.125 369.7916666666667  302.7083333333333 379.375  293.125 388.9583333333333  293.125 398.5416666666667  302.7083333333333 408.125  312.2916666666667 408.125  321.875 398.5416666666667  321.875 388.9583333333333  312.2916666666667 379.375  321.875 369.7916666666667  331.4583333333333 379.375  341.0416666666667 379.375  350.625 369.7916666666667  350.625 360.2083333333333  341.0416666666667 350.625  331.4583333333333 350.625  321.875 360.2083333333333  312.2916666666667 350.625  321.875 341.0416666666667  321.875 331.4583333333333  312.2916666666667 321.875  302.7083333333333 321.875  293.125 331.4583333333333  293.125 341.0416666666667  302.7083333333333 350.625  293.125 360.2083333333333  283.5416666666667 350.625  273.9583333333333 350.625  264.375 360.2083333333333  254.79166666666666 350.625  264.375 341.0416666666667  264.375 331.4583333333333  254.79166666666666 321.875  264.375 312.2916666666667  273.9583333333333 321.875  283.5416666666667 321.875  293.125 312.2916666666667  293.125 302.7083333333333  283.5416666666667 293.125  273.9583333333333 293.125  264.375 302.7083333333333  254.79166666666666 293.125  264.375 283.5416666666667  264.375 273.9583333333333  254.79166666666666 264.375  245.20833333333334 264.375  235.625 273.9583333333333  235.625 283.5416666666667  245.20833333333334 293.125  235.625 302.7083333333333  226.04166666666666 293.125  216.45833333333334 293.125  206.875 302.7083333333333  206.875 312.2916666666667  216.45833333333334 321.875  226.04166666666666 321.875  235.625 312.2916666666667  245.20833333333334 321.875  235.625 331.4583333333333  235.625 341.0416666666667  245.20833333333334 350.625  235.625 360.2083333333333  226.04166666666666 350.625  216.45833333333334 350.625  206.875 360.2083333333333  197.29166666666666 350.625  206.875 341.0416666666667  206.875 331.4583333333333  197.29166666666666 321.875  187.70833333333334 321.875  178.125 331.4583333333333  178.125 341.0416666666667  187.70833333333334 350.625  178.125 360.2083333333333  168.54166666666666 350.625  158.95833333333334 350.625  149.375 360.2083333333333  149.375 369.7916666666667  158.95833333333334 379.375  168.54166666666666 379.375  178.125 369.7916666666667  187.70833333333334 379.375  178.125 388.9583333333333  178.125 398.5416666666667  187.70833333333334 408.125  197.29166666666666 408.125  206.875 398.5416666666667  206.875 388.9583333333333  197.29166666666666 379.375  206.875 369.7916666666667  216.45833333333334 379.375  226.04166666666666 379.375  235.625 369.7916666666667  245.20833333333334 379.375  235.625 388.9583333333333  235.625 398.5416666666667  245.20833333333334 408.125  235.625 417.7083333333333  226.04166666666666 408.125  216.45833333333334 408.125  206.875 417.7083333333333  206.875 427.2916666666667  216.45833333333334 436.875  226.04166666666666 436.875  235.625 427.2916666666667  245.20833333333334 436.875  235.625 446.4583333333333  235.625 456.0416666666667  245.20833333333334 465.625  235.625 475.2083333333333  226.04166666666666 465.625  216.45833333333334 465.625  206.875 475.2083333333333  197.29166666666666 465.625  206.875 456.0416666666667  206.875 446.4583333333333  197.29166666666666 436.875  187.70833333333334 436.875  178.125 446.4583333333333  178.125 456.0416666666667  187.70833333333334 465.625  178.125 475.2083333333333  168.54166666666666 465.625  158.95833333333334 465.625  149.375 475.2083333333333  139.79166666666666 465.625  149.375 456.0416666666667  149.375 446.4583333333333  139.79166666666666 436.875  149.375 427.2916666666667  158.95833333333334 436.875  168.54166666666666 436.875  178.125 427.2916666666667  178.125 417.7083333333333  168.54166666666666 408.125  158.95833333333334 408.125  149.375 417.7083333333333  139.79166666666666 408.125  149.375 398.5416666666667  149.375 388.9583333333333  139.79166666666666 379.375  130.20833333333334 379.375  120.625 388.9583333333333  120.625 398.5416666666667  130.20833333333334 408.125  120.625 417.7083333333333  111.04166666666667 408.125  101.45833333333333 408.125  91.875 417.7083333333333  91.875 427.2916666666667  101.45833333333333 436.875  111.04166666666667 436.875  120.625 427.2916666666667  130.20833333333334 436.875  120.625 446.4583333333333  120.625 456.0416666666667  130.20833333333334 465.625  120.625 475.2083333333333  111.04166666666667 465.625  101.45833333333333 465.625  91.875 475.2083333333333  82.29166666666667 465.625  91.875 456.0416666666667  91.875 446.4583333333333  82.29166666666667 436.875  72.70833333333333 436.875  63.125 446.4583333333333  63.125 456.0416666666667  72.70833333333333 465.625  63.125 475.2083333333333  53.541666666666664 465.625  43.958333333333336 465.625  34.375 475.2083333333333  24.791666666666668 465.625" fill="#7980ff" stroke="#feffff" stroke-width="3"></path></svg>