<?xml version="1.0" standalone="no"?>
<svg id="SvgjsSvg1093" width="500" height="500" xmlns="http://www.w3.org/2000/svg" version="1.1" xmlns:xlink="http://www.w3.org/1999/xlink" xmlns:svgjs="http://svgjs.com/svgjs"><defs id="SvgjsDefs1094"></defs><rect id="SvgjsRect1095" width="500" height="500" x="0" y="0" fill="#358884" stroke-width="0"></rect><path id="SvgjsPath1096" d="M 94.16666666666667 391.6666666666667 L  94.16666666666667 363.3333333333333  108.33333333333333 349.1666666666667  136.66666666666666 349.1666666666667  136.66666666666666 320.8333333333333  108.33333333333333 320.8333333333333  94.16666666666667 306.6666666666667  94.16666666666667 278.3333333333333  108.33333333333333 264.1666666666667  136.66666666666666 264.1666666666667  150.83333333333334 278.3333333333333  150.83333333333334 306.6666666666667  179.16666666666666 306.6666666666667  179.16666666666666 278.3333333333333  193.33333333333334 264.1666666666667  221.66666666666666 264.1666666666667  221.66666666666666 235.83333333333334  193.33333333333334 235.83333333333334  179.16666666666666 221.66666666666666  179.16666666666666 193.33333333333334  150.83333333333334 193.33333333333334  150.83333333333334 221.66666666666666  136.66666666666666 235.83333333333334  108.33333333333333 235.83333333333334  94.16666666666667 221.66666666666666  94.16666666666667 193.33333333333334  108.33333333333333 179.16666666666666  136.66666666666666 179.16666666666666  136.66666666666666 150.83333333333334  108.33333333333333 150.83333333333334  94.16666666666667 136.66666666666666  94.16666666666667 108.33333333333333  108.33333333333333 94.16666666666667  136.66666666666666 94.16666666666667  150.83333333333334 108.33333333333333  150.83333333333334 136.66666666666666  179.16666666666666 136.66666666666666  179.16666666666666 108.33333333333333  193.33333333333334 94.16666666666667  221.66666666666666 94.16666666666667  235.83333333333334 108.33333333333333  235.83333333333334 136.66666666666666  221.66666666666666 150.83333333333334  193.33333333333334 150.83333333333334  193.33333333333334 179.16666666666666  221.66666666666666 179.16666666666666  235.83333333333334 193.33333333333334  235.83333333333334 221.66666666666666  264.1666666666667 221.66666666666666  264.1666666666667 193.33333333333334  278.3333333333333 179.16666666666666  306.6666666666667 179.16666666666666  306.6666666666667 150.83333333333334  278.3333333333333 150.83333333333334  264.1666666666667 136.66666666666666  264.1666666666667 108.33333333333333  278.3333333333333 94.16666666666667  306.6666666666667 94.16666666666667  320.8333333333333 108.33333333333333  320.8333333333333 136.66666666666666  349.1666666666667 136.66666666666666  349.1666666666667 108.33333333333333  363.3333333333333 94.16666666666667  391.6666666666667 94.16666666666667  405.8333333333333 108.33333333333333  405.8333333333333 136.66666666666666  391.6666666666667 150.83333333333334  363.3333333333333 150.83333333333334  363.3333333333333 179.16666666666666  391.6666666666667 179.16666666666666  405.8333333333333 193.33333333333334  405.8333333333333 221.66666666666666  391.6666666666667 235.83333333333334  363.3333333333333 235.83333333333334  349.1666666666667 221.66666666666666  349.1666666666667 193.33333333333334  320.8333333333333 193.33333333333334  320.8333333333333 221.66666666666666  306.6666666666667 235.83333333333334  278.3333333333333 235.83333333333334  278.3333333333333 264.1666666666667  306.6666666666667 264.1666666666667  320.8333333333333 278.3333333333333  320.8333333333333 306.6666666666667  349.1666666666667 306.6666666666667  349.1666666666667 278.3333333333333  363.3333333333333 264.1666666666667  391.6666666666667 264.1666666666667  405.8333333333333 278.3333333333333  405.8333333333333 306.6666666666667  391.6666666666667 320.8333333333333  363.3333333333333 320.8333333333333  363.3333333333333 349.1666666666667  391.6666666666667 349.1666666666667  405.8333333333333 363.3333333333333  405.8333333333333 391.6666666666667  391.6666666666667 405.8333333333333  363.3333333333333 405.8333333333333  349.1666666666667 391.6666666666667  349.1666666666667 363.3333333333333  320.8333333333333 363.3333333333333  320.8333333333333 391.6666666666667  306.6666666666667 405.8333333333333  278.3333333333333 405.8333333333333  264.1666666666667 391.6666666666667  264.1666666666667 363.3333333333333  278.3333333333333 349.1666666666667  306.6666666666667 349.1666666666667  306.6666666666667 320.8333333333333  278.3333333333333 320.8333333333333  264.1666666666667 306.6666666666667  264.1666666666667 278.3333333333333  235.83333333333334 278.3333333333333  235.83333333333334 306.6666666666667  221.66666666666666 320.8333333333333  193.33333333333334 320.8333333333333  193.33333333333334 349.1666666666667  221.66666666666666 349.1666666666667  235.83333333333334 363.3333333333333  235.83333333333334 391.6666666666667  221.66666666666666 405.8333333333333  193.33333333333334 405.8333333333333  179.16666666666666 391.6666666666667  179.16666666666666 363.3333333333333  150.83333333333334 363.3333333333333  150.83333333333334 391.6666666666667  136.66666666666666 405.8333333333333  108.33333333333333 405.8333333333333  94.16666666666667 391.6666666666667" fill="#000000" stroke="#e3fff1" stroke-width="2" fill-opacity="0"></path></svg>