<?xml version="1.0" standalone="no"?>
<svg id="SvgjsSvg1001" width="400" height="400" xmlns="http://www.w3.org/2000/svg" version="1.1" xmlns:xlink="http://www.w3.org/1999/xlink" xmlns:svgjs="http://svgjs.com/svgjs"><defs id="SvgjsDefs1002"></defs><path id="SvgjsPath1008" d="M 151 100 L 151 100 151 50" stroke="black" stroke-width="1" fill="#000000" fill-opacity="0"></path><path id="SvgjsPath1009" d="M 150 100 L 150 100 150 50" stroke="black" stroke-width="1" fill="#000000" fill-opacity="0"></path><path id="SvgjsPath1010" d="M 150 49 L 150 49 50 49" stroke="black" stroke-width="1" fill="#000000" fill-opacity="0"></path><path id="SvgjsPath1011" d="M 150 50 L 150 50 50 50" stroke="black" stroke-width="1" fill="#000000" fill-opacity="0"></path><path id="SvgjsPath1012" d="M 49 50 L 49 50 49 150" stroke="black" stroke-width="1" fill="#000000" fill-opacity="0"></path><path id="SvgjsPath1013" d="M 50 50 L 50 50 50 150" stroke="black" stroke-width="1" fill="#000000" fill-opacity="0"></path><path id="SvgjsPath1014" d="M 50 151 L 50 151 100 151" stroke="black" stroke-width="1" fill="#000000" fill-opacity="0"></path><path id="SvgjsPath1015" d="M 50 150 L 50 150 100 150" stroke="black" stroke-width="1" fill="#000000" fill-opacity="0"></path><path id="SvgjsPath1016" d="M 99.33333333333333 150.74535599249992 L 99.33333333333333 150.74535599249992 155.2350327708281 200.74535599249992" stroke="black" stroke-width="1" fill="#000000" fill-opacity="0"></path><path id="SvgjsPath1017" d="M 100 150 L 100 150 155.90169943749476 200" stroke="black" stroke-width="1" fill="#000000" fill-opacity="0"></path><path id="SvgjsPath1018" d="M 155.2350327708281 199.25464400750008 L 155.2350327708281 199.25464400750008 99.33333333333333 249.25464400750008" stroke="black" stroke-width="1" fill="#000000" fill-opacity="0"></path><path id="SvgjsPath1019" d="M 155.90169943749476 200 L 155.90169943749476 200 100 250" stroke="black" stroke-width="1" fill="#000000" fill-opacity="0"></path><path id="SvgjsPath1020" d="M 300 151 L 300 151 350 150.99999999999997" stroke="black" stroke-width="1" fill="#000000" fill-opacity="0"></path><path id="SvgjsPath1021" d="M 300 150 L 300 150 350 149.99999999999997" stroke="black" stroke-width="1" fill="#000000" fill-opacity="0"></path><path id="SvgjsPath1022" d="M 351 149.99999999999997 L 351 149.99999999999997 351 49.99999999999997" stroke="black" stroke-width="1" fill="#000000" fill-opacity="0"></path><path id="SvgjsPath1023" d="M 350 149.99999999999997 L 350 149.99999999999997 350 49.99999999999997" stroke="black" stroke-width="1" fill="#000000" fill-opacity="0"></path><path id="SvgjsPath1024" d="M 350 48.99999999999997 L 350 48.99999999999997 249.99999999999997 49" stroke="black" stroke-width="1" fill="#000000" fill-opacity="0"></path><path id="SvgjsPath1025" d="M 350 49.99999999999997 L 350 49.99999999999997 249.99999999999997 50" stroke="black" stroke-width="1" fill="#000000" fill-opacity="0"></path><path id="SvgjsPath1026" d="M 248.99999999999997 50 L 248.99999999999997 50 249 100" stroke="black" stroke-width="1" fill="#000000" fill-opacity="0"></path><path id="SvgjsPath1027" d="M 249.99999999999997 50 L 249.99999999999997 50 250 100" stroke="black" stroke-width="1" fill="#000000" fill-opacity="0"></path><path id="SvgjsPath1028" d="M 249.25464400750008 99.33333333333333 L 249.25464400750008 99.33333333333333 199.25464400750008 155.2350327708281" stroke="black" stroke-width="1" fill="#000000" fill-opacity="0"></path><path id="SvgjsPath1029" d="M 250 100 L 250 100 200 155.90169943749476" stroke="black" stroke-width="1" fill="#000000" fill-opacity="0"></path><path id="SvgjsPath1030" d="M 200.74535599249992 155.2350327708281 L 200.74535599249992 155.2350327708281 150.74535599249992 99.33333333333333" stroke="black" stroke-width="1" fill="#000000" fill-opacity="0"></path><path id="SvgjsPath1031" d="M 200 155.90169943749476 L 200 155.90169943749476 150 100" stroke="black" stroke-width="1" fill="#000000" fill-opacity="0"></path><path id="SvgjsPath1032" d="M 249.00000000000003 300 L 249.00000000000003 300 249.00000000000003 350" stroke="black" stroke-width="1" fill="#000000" fill-opacity="0"></path><path id="SvgjsPath1033" d="M 250.00000000000003 300 L 250.00000000000003 300 250.00000000000003 350" stroke="black" stroke-width="1" fill="#000000" fill-opacity="0"></path><path id="SvgjsPath1034" d="M 250.00000000000003 351 L 250.00000000000003 351 350 351" stroke="black" stroke-width="1" fill="#000000" fill-opacity="0"></path><path id="SvgjsPath1035" d="M 250.00000000000003 350 L 250.00000000000003 350 350 350" stroke="black" stroke-width="1" fill="#000000" fill-opacity="0"></path><path id="SvgjsPath1036" d="M 351 350 L 351 350 351 249.99999999999997" stroke="black" stroke-width="1" fill="#000000" fill-opacity="0"></path><path id="SvgjsPath1037" d="M 350 350 L 350 350 350 249.99999999999997" stroke="black" stroke-width="1" fill="#000000" fill-opacity="0"></path><path id="SvgjsPath1038" d="M 350 248.99999999999997 L 350 248.99999999999997 300 248.99999999999997" stroke="black" stroke-width="1" fill="#000000" fill-opacity="0"></path><path id="SvgjsPath1039" d="M 350 249.99999999999997 L 350 249.99999999999997 300 249.99999999999997" stroke="black" stroke-width="1" fill="#000000" fill-opacity="0"></path><path id="SvgjsPath1040" d="M 300.6666666666667 249.25464400750005 L 300.6666666666667 249.25464400750005 244.7649672291719 199.25464400750008" stroke="black" stroke-width="1" fill="#000000" fill-opacity="0"></path><path id="SvgjsPath1041" d="M 300 249.99999999999997 L 300 249.99999999999997 244.09830056250524 200" stroke="black" stroke-width="1" fill="#000000" fill-opacity="0"></path><path id="SvgjsPath1042" d="M 244.7649672291719 200.74535599249992 L 244.7649672291719 200.74535599249992 300.6666666666667 150.7453559924999" stroke="black" stroke-width="1" fill="#000000" fill-opacity="0"></path><path id="SvgjsPath1043" d="M 244.09830056250524 200 L 244.09830056250524 200 300 149.99999999999997" stroke="black" stroke-width="1" fill="#000000" fill-opacity="0"></path><path id="SvgjsPath1044" d="M 100.00000000000001 249.00000000000003 L 100.00000000000001 249.00000000000003 50 249.00000000000003" stroke="black" stroke-width="1" fill="#000000" fill-opacity="0"></path><path id="SvgjsPath1045" d="M 100.00000000000001 250.00000000000003 L 100.00000000000001 250.00000000000003 50 250.00000000000003" stroke="black" stroke-width="1" fill="#000000" fill-opacity="0"></path><path id="SvgjsPath1046" d="M 49 250.00000000000003 L 49 250.00000000000003 49.00000000000003 350" stroke="black" stroke-width="1" fill="#000000" fill-opacity="0"></path><path id="SvgjsPath1047" d="M 50 250.00000000000003 L 50 250.00000000000003 50.00000000000003 350" stroke="black" stroke-width="1" fill="#000000" fill-opacity="0"></path><path id="SvgjsPath1048" d="M 50.00000000000003 351 L 50.00000000000003 351 150.00000000000003 351" stroke="black" stroke-width="1" fill="#000000" fill-opacity="0"></path><path id="SvgjsPath1049" d="M 50.00000000000003 350 L 50.00000000000003 350 150.00000000000003 350" stroke="black" stroke-width="1" fill="#000000" fill-opacity="0"></path><path id="SvgjsPath1050" d="M 151.00000000000003 350 L 151.00000000000003 350 151.00000000000003 300" stroke="black" stroke-width="1" fill="#000000" fill-opacity="0"></path><path id="SvgjsPath1051" d="M 150.00000000000003 350 L 150.00000000000003 350 150.00000000000003 300" stroke="black" stroke-width="1" fill="#000000" fill-opacity="0"></path><path id="SvgjsPath1052" d="M 150.74535599249995 300.6666666666667 L 150.74535599249995 300.6666666666667 200.74535599249992 244.7649672291719" stroke="black" stroke-width="1" fill="#000000" fill-opacity="0"></path><path id="SvgjsPath1053" d="M 150.00000000000003 300 L 150.00000000000003 300 200 244.09830056250524" stroke="black" stroke-width="1" fill="#000000" fill-opacity="0"></path><path id="SvgjsPath1054" d="M 199.25464400750008 244.7649672291719 L 199.25464400750008 244.7649672291719 249.2546440075001 300.6666666666667" stroke="black" stroke-width="1" fill="#000000" fill-opacity="0"></path><path id="SvgjsPath1055" d="M 200 244.09830056250524 L 200 244.09830056250524 250.00000000000003 300" stroke="black" stroke-width="1" fill="#000000" fill-opacity="0"></path><path id="SvgjsPath1056" d="M 50.00000000000001 125.00000000000001 L 50.00000000000001 125.00000000000001 25 125.00000000000001" stroke="black" stroke-width="1" fill="#000000" fill-opacity="0"></path><path id="SvgjsPath1057" d="M 25 125.00000000000001 L 25 125.00000000000001 25.000000000000014 175" stroke="black" stroke-width="1" fill="#000000" fill-opacity="0"></path><path id="SvgjsPath1058" d="M 25.000000000000014 175 L 25.000000000000014 175 75.00000000000001 175" stroke="black" stroke-width="1" fill="#000000" fill-opacity="0"></path><path id="SvgjsPath1059" d="M 75.00000000000001 175 L 75.00000000000001 175 75.00000000000001 150" stroke="black" stroke-width="1" fill="#000000" fill-opacity="0"></path><path id="SvgjsPath1060" d="M 75.00000000000001 150 L 75.00000000000001 150 100 122.04915028125262" stroke="black" stroke-width="1" fill="#000000" fill-opacity="0"></path><path id="SvgjsPath1061" d="M 100 122.04915028125262 L 100 122.04915028125262 125.00000000000001 150" stroke="black" stroke-width="1" fill="#000000" fill-opacity="0"></path><path id="SvgjsPath1062" d="M 74.99999999999999 50.00000000000001 L 74.99999999999999 50.00000000000001 74.99999999999997 25.000000000000014" stroke="black" stroke-width="1" fill="#000000" fill-opacity="0"></path><path id="SvgjsPath1063" d="M 74.99999999999997 25.000000000000014 L 74.99999999999997 25.000000000000014 24.99999999999997 25.00000000000003" stroke="black" stroke-width="1" fill="#000000" fill-opacity="0"></path><path id="SvgjsPath1064" d="M 24.99999999999997 25.00000000000003 L 24.99999999999997 25.00000000000003 24.999999999999986 75.00000000000003" stroke="black" stroke-width="1" fill="#000000" fill-opacity="0"></path><path id="SvgjsPath1065" d="M 24.999999999999986 75.00000000000003 L 24.999999999999986 75.00000000000003 49.99999999999999 75.00000000000001" stroke="black" stroke-width="1" fill="#000000" fill-opacity="0"></path><path id="SvgjsPath1066" d="M 49.99999999999999 75.00000000000001 L 49.99999999999999 75.00000000000001 77.95084971874738 100" stroke="black" stroke-width="1" fill="#000000" fill-opacity="0"></path><path id="SvgjsPath1067" d="M 77.95084971874738 100 L 77.95084971874738 100 50.00000000000001 125.00000000000001" stroke="black" stroke-width="1" fill="#000000" fill-opacity="0"></path><path id="SvgjsPath1068" d="M 150 74.99999999999999 L 150 74.99999999999999 175 74.99999999999997" stroke="black" stroke-width="1" fill="#000000" fill-opacity="0"></path><path id="SvgjsPath1069" d="M 175 74.99999999999997 L 175 74.99999999999997 174.99999999999997 24.99999999999997" stroke="black" stroke-width="1" fill="#000000" fill-opacity="0"></path><path id="SvgjsPath1070" d="M 174.99999999999997 24.99999999999997 L 174.99999999999997 24.99999999999997 124.99999999999997 24.999999999999986" stroke="black" stroke-width="1" fill="#000000" fill-opacity="0"></path><path id="SvgjsPath1071" d="M 124.99999999999997 24.999999999999986 L 124.99999999999997 24.999999999999986 124.99999999999999 49.99999999999999" stroke="black" stroke-width="1" fill="#000000" fill-opacity="0"></path><path id="SvgjsPath1072" d="M 124.99999999999999 49.99999999999999 L 124.99999999999999 49.99999999999999 99.99999999999999 77.95084971874738" stroke="black" stroke-width="1" fill="#000000" fill-opacity="0"></path><path id="SvgjsPath1073" d="M 99.99999999999999 77.95084971874738 L 99.99999999999999 77.95084971874738 74.99999999999999 50.00000000000001" stroke="black" stroke-width="1" fill="#000000" fill-opacity="0"></path><path id="SvgjsPath1074" d="M 125.00000000000003 150 L 125.00000000000003 150 125.00000000000003 175" stroke="black" stroke-width="1" fill="#000000" fill-opacity="0"></path><path id="SvgjsPath1075" d="M 125.00000000000003 175 L 125.00000000000003 175 150.00000000000003 174.99999999999997" stroke="black" stroke-width="1" fill="#000000" fill-opacity="0"></path><path id="SvgjsPath1076" d="M 150.00000000000003 174.99999999999997 L 150.00000000000003 174.99999999999997 175.00000000000006 199.99999999999997" stroke="black" stroke-width="1" fill="#000000" fill-opacity="0"></path><path id="SvgjsPath1077" d="M 200.00000000000003 174.99999999999994 L 200.00000000000003 174.99999999999994 175.00000000000003 149.99999999999997" stroke="black" stroke-width="1" fill="#000000" fill-opacity="0"></path><path id="SvgjsPath1078" d="M 175.00000000000003 149.99999999999997 L 175.00000000000003 149.99999999999997 175 124.99999999999997" stroke="black" stroke-width="1" fill="#000000" fill-opacity="0"></path><path id="SvgjsPath1079" d="M 175 124.99999999999997 L 175 124.99999999999997 150 124.99999999999997" stroke="black" stroke-width="1" fill="#000000" fill-opacity="0"></path><path id="SvgjsPath1080" d="M 150 124.99999999999997 L 150 124.99999999999997 122.04915028125262 99.99999999999999" stroke="black" stroke-width="1" fill="#000000" fill-opacity="0"></path><path id="SvgjsPath1081" d="M 122.04915028125262 99.99999999999999 L 122.04915028125262 99.99999999999999 150 74.99999999999997" stroke="black" stroke-width="1" fill="#000000" fill-opacity="0"></path><path id="SvgjsPath1082" d="M 275 50.00000000000001 L 275 50.00000000000001 275 25.000000000000014" stroke="black" stroke-width="1" fill="#000000" fill-opacity="0"></path><path id="SvgjsPath1083" d="M 275 25.000000000000014 L 275 25.000000000000014 224.99999999999997 25.00000000000003" stroke="black" stroke-width="1" fill="#000000" fill-opacity="0"></path><path id="SvgjsPath1084" d="M 224.99999999999997 25.00000000000003 L 224.99999999999997 25.00000000000003 225 75.00000000000003" stroke="black" stroke-width="1" fill="#000000" fill-opacity="0"></path><path id="SvgjsPath1085" d="M 225 75.00000000000003 L 225 75.00000000000003 250 75.00000000000001" stroke="black" stroke-width="1" fill="#000000" fill-opacity="0"></path><path id="SvgjsPath1086" d="M 250 75.00000000000001 L 250 75.00000000000001 277.95084971874735 100" stroke="black" stroke-width="1" fill="#000000" fill-opacity="0"></path><path id="SvgjsPath1087" d="M 277.95084971874735 100 L 277.95084971874735 100 250 125.00000000000001" stroke="black" stroke-width="1" fill="#000000" fill-opacity="0"></path><path id="SvgjsPath1088" d="M 350 74.99999999999999 L 350 74.99999999999999 375 74.99999999999997" stroke="black" stroke-width="1" fill="#000000" fill-opacity="0"></path><path id="SvgjsPath1089" d="M 375 74.99999999999997 L 375 74.99999999999997 375 24.99999999999997" stroke="black" stroke-width="1" fill="#000000" fill-opacity="0"></path><path id="SvgjsPath1090" d="M 375 24.99999999999997 L 375 24.99999999999997 325 24.999999999999986" stroke="black" stroke-width="1" fill="#000000" fill-opacity="0"></path><path id="SvgjsPath1091" d="M 325 24.999999999999986 L 325 24.999999999999986 325 49.99999999999999" stroke="black" stroke-width="1" fill="#000000" fill-opacity="0"></path><path id="SvgjsPath1092" d="M 325 49.99999999999999 L 325 49.99999999999999 300 77.95084971874738" stroke="black" stroke-width="1" fill="#000000" fill-opacity="0"></path><path id="SvgjsPath1093" d="M 300 77.95084971874738 L 300 77.95084971874738 275 50.00000000000001" stroke="black" stroke-width="1" fill="#000000" fill-opacity="0"></path><path id="SvgjsPath1094" d="M 325 150 L 325 150 325.00000000000006 175" stroke="black" stroke-width="1" fill="#000000" fill-opacity="0"></path><path id="SvgjsPath1095" d="M 325.00000000000006 175 L 325.00000000000006 175 375 174.99999999999997" stroke="black" stroke-width="1" fill="#000000" fill-opacity="0"></path><path id="SvgjsPath1096" d="M 375 174.99999999999997 L 375 174.99999999999997 375 124.99999999999997" stroke="black" stroke-width="1" fill="#000000" fill-opacity="0"></path><path id="SvgjsPath1097" d="M 375 124.99999999999997 L 375 124.99999999999997 350 124.99999999999997" stroke="black" stroke-width="1" fill="#000000" fill-opacity="0"></path><path id="SvgjsPath1098" d="M 350 124.99999999999997 L 350 124.99999999999997 322.04915028125265 99.99999999999999" stroke="black" stroke-width="1" fill="#000000" fill-opacity="0"></path><path id="SvgjsPath1099" d="M 322.04915028125265 99.99999999999999 L 322.04915028125265 99.99999999999999 350 74.99999999999997" stroke="black" stroke-width="1" fill="#000000" fill-opacity="0"></path><path id="SvgjsPath1100" d="M 250 125.00000000000003 L 250 125.00000000000003 225 125.00000000000003" stroke="black" stroke-width="1" fill="#000000" fill-opacity="0"></path><path id="SvgjsPath1101" d="M 225 125.00000000000003 L 225 125.00000000000003 225.00000000000003 150.00000000000003" stroke="black" stroke-width="1" fill="#000000" fill-opacity="0"></path><path id="SvgjsPath1102" d="M 225.00000000000003 150.00000000000003 L 225.00000000000003 150.00000000000003 200.00000000000006 175.00000000000006" stroke="black" stroke-width="1" fill="#000000" fill-opacity="0"></path><path id="SvgjsPath1103" d="M 225.00000000000006 200.00000000000006 L 225.00000000000006 200.00000000000006 250.00000000000003 175.00000000000003" stroke="black" stroke-width="1" fill="#000000" fill-opacity="0"></path><path id="SvgjsPath1104" d="M 250.00000000000003 175.00000000000003 L 250.00000000000003 175.00000000000003 275.00000000000006 175" stroke="black" stroke-width="1" fill="#000000" fill-opacity="0"></path><path id="SvgjsPath1105" d="M 275.00000000000006 175 L 275.00000000000006 175 275 150" stroke="black" stroke-width="1" fill="#000000" fill-opacity="0"></path><path id="SvgjsPath1106" d="M 275 150 L 275 150 300 122.04915028125262" stroke="black" stroke-width="1" fill="#000000" fill-opacity="0"></path><path id="SvgjsPath1107" d="M 300 122.04915028125262 L 300 122.04915028125262 325 150" stroke="black" stroke-width="1" fill="#000000" fill-opacity="0"></path><path id="SvgjsPath1108" d="M 350 275 L 350 275 375 275" stroke="black" stroke-width="1" fill="#000000" fill-opacity="0"></path><path id="SvgjsPath1109" d="M 375 275 L 375 275 375 224.99999999999997" stroke="black" stroke-width="1" fill="#000000" fill-opacity="0"></path><path id="SvgjsPath1110" d="M 375 224.99999999999997 L 375 224.99999999999997 325 225" stroke="black" stroke-width="1" fill="#000000" fill-opacity="0"></path><path id="SvgjsPath1111" d="M 325 225 L 325 225 325 250" stroke="black" stroke-width="1" fill="#000000" fill-opacity="0"></path><path id="SvgjsPath1112" d="M 325 250 L 325 250 300 277.95084971874735" stroke="black" stroke-width="1" fill="#000000" fill-opacity="0"></path><path id="SvgjsPath1113" d="M 300 277.95084971874735 L 300 277.95084971874735 275 250" stroke="black" stroke-width="1" fill="#000000" fill-opacity="0"></path><path id="SvgjsPath1114" d="M 325 350 L 325 350 325.00000000000006 375" stroke="black" stroke-width="1" fill="#000000" fill-opacity="0"></path><path id="SvgjsPath1115" d="M 325.00000000000006 375 L 325.00000000000006 375 375 375" stroke="black" stroke-width="1" fill="#000000" fill-opacity="0"></path><path id="SvgjsPath1116" d="M 375 375 L 375 375 375 324.99999999999994" stroke="black" stroke-width="1" fill="#000000" fill-opacity="0"></path><path id="SvgjsPath1117" d="M 375 324.99999999999994 L 375 324.99999999999994 350 325" stroke="black" stroke-width="1" fill="#000000" fill-opacity="0"></path><path id="SvgjsPath1118" d="M 350 325 L 350 325 322.04915028125265 300" stroke="black" stroke-width="1" fill="#000000" fill-opacity="0"></path><path id="SvgjsPath1119" d="M 322.04915028125265 300 L 322.04915028125265 300 350 275" stroke="black" stroke-width="1" fill="#000000" fill-opacity="0"></path><path id="SvgjsPath1120" d="M 250 325 L 250 325 225 325.00000000000006" stroke="black" stroke-width="1" fill="#000000" fill-opacity="0"></path><path id="SvgjsPath1121" d="M 225 325.00000000000006 L 225 325.00000000000006 225.00000000000006 375.00000000000006" stroke="black" stroke-width="1" fill="#000000" fill-opacity="0"></path><path id="SvgjsPath1122" d="M 225.00000000000006 375.00000000000006 L 225.00000000000006 375.00000000000006 275.00000000000006 375" stroke="black" stroke-width="1" fill="#000000" fill-opacity="0"></path><path id="SvgjsPath1123" d="M 275.00000000000006 375 L 275.00000000000006 375 275 350" stroke="black" stroke-width="1" fill="#000000" fill-opacity="0"></path><path id="SvgjsPath1124" d="M 275 350 L 275 350 300 322.04915028125265" stroke="black" stroke-width="1" fill="#000000" fill-opacity="0"></path><path id="SvgjsPath1125" d="M 300 322.04915028125265 L 300 322.04915028125265 325 350" stroke="black" stroke-width="1" fill="#000000" fill-opacity="0"></path><path id="SvgjsPath1126" d="M 275 250 L 275 250 274.99999999999994 225" stroke="black" stroke-width="1" fill="#000000" fill-opacity="0"></path><path id="SvgjsPath1127" d="M 274.99999999999994 225 L 274.99999999999994 225 249.99999999999994 225.00000000000003" stroke="black" stroke-width="1" fill="#000000" fill-opacity="0"></path><path id="SvgjsPath1128" d="M 249.99999999999994 225.00000000000003 L 249.99999999999994 225.00000000000003 224.99999999999994 200.00000000000006" stroke="black" stroke-width="1" fill="#000000" fill-opacity="0"></path><path id="SvgjsPath1129" d="M 199.99999999999994 225.00000000000006 L 199.99999999999994 225.00000000000006 224.99999999999997 250.00000000000006" stroke="black" stroke-width="1" fill="#000000" fill-opacity="0"></path><path id="SvgjsPath1130" d="M 224.99999999999997 250.00000000000006 L 224.99999999999997 250.00000000000006 225 275.00000000000006" stroke="black" stroke-width="1" fill="#000000" fill-opacity="0"></path><path id="SvgjsPath1131" d="M 225 275.00000000000006 L 225 275.00000000000006 250 275" stroke="black" stroke-width="1" fill="#000000" fill-opacity="0"></path><path id="SvgjsPath1132" d="M 250 275 L 250 275 277.95084971874735 300" stroke="black" stroke-width="1" fill="#000000" fill-opacity="0"></path><path id="SvgjsPath1133" d="M 277.95084971874735 300 L 277.95084971874735 300 250 325" stroke="black" stroke-width="1" fill="#000000" fill-opacity="0"></path><path id="SvgjsPath1134" d="M 125.00000000000003 350 L 125.00000000000003 350 125.00000000000003 375" stroke="black" stroke-width="1" fill="#000000" fill-opacity="0"></path><path id="SvgjsPath1135" d="M 125.00000000000003 375 L 125.00000000000003 375 175.00000000000003 375" stroke="black" stroke-width="1" fill="#000000" fill-opacity="0"></path><path id="SvgjsPath1136" d="M 175.00000000000003 375 L 175.00000000000003 375 175 324.99999999999994" stroke="black" stroke-width="1" fill="#000000" fill-opacity="0"></path><path id="SvgjsPath1137" d="M 175 324.99999999999994 L 175 324.99999999999994 150 325" stroke="black" stroke-width="1" fill="#000000" fill-opacity="0"></path><path id="SvgjsPath1138" d="M 150 325 L 150 325 122.04915028125265 300" stroke="black" stroke-width="1" fill="#000000" fill-opacity="0"></path><path id="SvgjsPath1139" d="M 122.04915028125265 300 L 122.04915028125265 300 150 275" stroke="black" stroke-width="1" fill="#000000" fill-opacity="0"></path><path id="SvgjsPath1140" d="M 50.000000000000014 325 L 50.000000000000014 325 25.000000000000014 325.00000000000006" stroke="black" stroke-width="1" fill="#000000" fill-opacity="0"></path><path id="SvgjsPath1141" d="M 25.000000000000014 325.00000000000006 L 25.000000000000014 325.00000000000006 25.000000000000043 375.00000000000006" stroke="black" stroke-width="1" fill="#000000" fill-opacity="0"></path><path id="SvgjsPath1142" d="M 25.000000000000043 375.00000000000006 L 25.000000000000043 375.00000000000006 75.00000000000003 375" stroke="black" stroke-width="1" fill="#000000" fill-opacity="0"></path><path id="SvgjsPath1143" d="M 75.00000000000003 375 L 75.00000000000003 375 75.00000000000003 350" stroke="black" stroke-width="1" fill="#000000" fill-opacity="0"></path><path id="SvgjsPath1144" d="M 75.00000000000003 350 L 75.00000000000003 350 100.00000000000001 322.04915028125265" stroke="black" stroke-width="1" fill="#000000" fill-opacity="0"></path><path id="SvgjsPath1145" d="M 100.00000000000001 322.04915028125265 L 100.00000000000001 322.04915028125265 125.00000000000003 350" stroke="black" stroke-width="1" fill="#000000" fill-opacity="0"></path><path id="SvgjsPath1146" d="M 74.99999999999997 250 L 74.99999999999997 250 74.99999999999996 225" stroke="black" stroke-width="1" fill="#000000" fill-opacity="0"></path><path id="SvgjsPath1147" d="M 74.99999999999996 225 L 74.99999999999996 225 24.999999999999957 225.00000000000006" stroke="black" stroke-width="1" fill="#000000" fill-opacity="0"></path><path id="SvgjsPath1148" d="M 24.999999999999957 225.00000000000006 L 24.999999999999957 225.00000000000006 24.999999999999986 275.00000000000006" stroke="black" stroke-width="1" fill="#000000" fill-opacity="0"></path><path id="SvgjsPath1149" d="M 24.999999999999986 275.00000000000006 L 24.999999999999986 275.00000000000006 49.999999999999986 275" stroke="black" stroke-width="1" fill="#000000" fill-opacity="0"></path><path id="SvgjsPath1150" d="M 49.999999999999986 275 L 49.999999999999986 275 77.95084971874735 300" stroke="black" stroke-width="1" fill="#000000" fill-opacity="0"></path><path id="SvgjsPath1151" d="M 77.95084971874735 300 L 77.95084971874735 300 50.000000000000014 325" stroke="black" stroke-width="1" fill="#000000" fill-opacity="0"></path><path id="SvgjsPath1152" d="M 150 274.99999999999994 L 150 274.99999999999994 175 274.99999999999994" stroke="black" stroke-width="1" fill="#000000" fill-opacity="0"></path><path id="SvgjsPath1153" d="M 175 274.99999999999994 L 175 274.99999999999994 174.99999999999997 249.99999999999994" stroke="black" stroke-width="1" fill="#000000" fill-opacity="0"></path><path id="SvgjsPath1154" d="M 174.99999999999997 249.99999999999994 L 174.99999999999997 249.99999999999994 199.99999999999994 224.99999999999994" stroke="black" stroke-width="1" fill="#000000" fill-opacity="0"></path><path id="SvgjsPath1155" d="M 174.99999999999994 199.99999999999994 L 174.99999999999994 199.99999999999994 149.99999999999994 224.99999999999997" stroke="black" stroke-width="1" fill="#000000" fill-opacity="0"></path><path id="SvgjsPath1156" d="M 149.99999999999994 224.99999999999997 L 149.99999999999994 224.99999999999997 124.99999999999996 225" stroke="black" stroke-width="1" fill="#000000" fill-opacity="0"></path><path id="SvgjsPath1157" d="M 124.99999999999996 225 L 124.99999999999996 225 124.99999999999997 250" stroke="black" stroke-width="1" fill="#000000" fill-opacity="0"></path><path id="SvgjsPath1158" d="M 124.99999999999997 250 L 124.99999999999997 250 99.99999999999999 277.95084971874735" stroke="black" stroke-width="1" fill="#000000" fill-opacity="0"></path><path id="SvgjsPath1159" d="M 99.99999999999999 277.95084971874735 L 99.99999999999999 277.95084971874735 74.99999999999997 250" stroke="black" stroke-width="1" fill="#000000" fill-opacity="0"></path></svg>