<?xml version="1.0" standalone="no"?>
<svg id="SvgjsSvg1001" width="400" height="400" xmlns="http://www.w3.org/2000/svg" version="1.1" xmlns:xlink="http://www.w3.org/1999/xlink" xmlns:svgjs="http://svgjs.com/svgjs"><defs id="SvgjsDefs1002"></defs><path id="SvgjsPath1008" d="M 150 100 L 150 100 150 50" stroke="black" stroke-width="1" fill="#000000" fill-opacity="0"></path><path id="SvgjsPath1009" d="M 150 50 L 150 50 50 50" stroke="black" stroke-width="1" fill="#000000" fill-opacity="0"></path><path id="SvgjsPath1010" d="M 50 50 L 50 50 50 150" stroke="black" stroke-width="1" fill="#000000" fill-opacity="0"></path><path id="SvgjsPath1011" d="M 50 150 L 50 150 100 150" stroke="black" stroke-width="1" fill="#000000" fill-opacity="0"></path><path id="SvgjsPath1012" d="M 100 150 L 100 150 155.90169943749476 200" stroke="black" stroke-width="1" fill="#000000" fill-opacity="0"></path><path id="SvgjsPath1013" d="M 155.90169943749476 200 L 155.90169943749476 200 100 250" stroke="black" stroke-width="1" fill="#000000" fill-opacity="0"></path><path id="SvgjsPath1014" d="M 300 150 L 300 150 350 149.99999999999997" stroke="black" stroke-width="1" fill="#000000" fill-opacity="0"></path><path id="SvgjsPath1015" d="M 350 149.99999999999997 L 350 149.99999999999997 350 49.99999999999997" stroke="black" stroke-width="1" fill="#000000" fill-opacity="0"></path><path id="SvgjsPath1016" d="M 350 49.99999999999997 L 350 49.99999999999997 249.99999999999997 50" stroke="black" stroke-width="1" fill="#000000" fill-opacity="0"></path><path id="SvgjsPath1017" d="M 249.99999999999997 50 L 249.99999999999997 50 250 100" stroke="black" stroke-width="1" fill="#000000" fill-opacity="0"></path><path id="SvgjsPath1018" d="M 250 100 L 250 100 200 155.90169943749476" stroke="black" stroke-width="1" fill="#000000" fill-opacity="0"></path><path id="SvgjsPath1019" d="M 200 155.90169943749476 L 200 155.90169943749476 150 100" stroke="black" stroke-width="1" fill="#000000" fill-opacity="0"></path><path id="SvgjsPath1020" d="M 250.00000000000003 300 L 250.00000000000003 300 250.00000000000003 350" stroke="black" stroke-width="1" fill="#000000" fill-opacity="0"></path><path id="SvgjsPath1021" d="M 250.00000000000003 350 L 250.00000000000003 350 350 350" stroke="black" stroke-width="1" fill="#000000" fill-opacity="0"></path><path id="SvgjsPath1022" d="M 350 350 L 350 350 350 249.99999999999997" stroke="black" stroke-width="1" fill="#000000" fill-opacity="0"></path><path id="SvgjsPath1023" d="M 350 249.99999999999997 L 350 249.99999999999997 300 249.99999999999997" stroke="black" stroke-width="1" fill="#000000" fill-opacity="0"></path><path id="SvgjsPath1024" d="M 300 249.99999999999997 L 300 249.99999999999997 244.09830056250524 200" stroke="black" stroke-width="1" fill="#000000" fill-opacity="0"></path><path id="SvgjsPath1025" d="M 244.09830056250524 200 L 244.09830056250524 200 300 149.99999999999997" stroke="black" stroke-width="1" fill="#000000" fill-opacity="0"></path><path id="SvgjsPath1026" d="M 100.00000000000001 250.00000000000003 L 100.00000000000001 250.00000000000003 50 250.00000000000003" stroke="black" stroke-width="1" fill="#000000" fill-opacity="0"></path><path id="SvgjsPath1027" d="M 50 250.00000000000003 L 50 250.00000000000003 50.00000000000003 350" stroke="black" stroke-width="1" fill="#000000" fill-opacity="0"></path><path id="SvgjsPath1028" d="M 50.00000000000003 350 L 50.00000000000003 350 150.00000000000003 350" stroke="black" stroke-width="1" fill="#000000" fill-opacity="0"></path><path id="SvgjsPath1029" d="M 150.00000000000003 350 L 150.00000000000003 350 150.00000000000003 300" stroke="black" stroke-width="1" fill="#000000" fill-opacity="0"></path><path id="SvgjsPath1030" d="M 150.00000000000003 300 L 150.00000000000003 300 200 244.09830056250524" stroke="black" stroke-width="1" fill="#000000" fill-opacity="0"></path><path id="SvgjsPath1031" d="M 200 244.09830056250524 L 200 244.09830056250524 250.00000000000003 300" stroke="black" stroke-width="1" fill="#000000" fill-opacity="0"></path></svg>